<svg width="250" height="46" viewBox="0 0 250 46" fill="none" xmlns="http://www.w3.org/2000/svg">
<path d="M29.8321 8.67528C29.8321 9.9058 29.4186 10.9479 28.6068 11.7708C27.7911 12.5976 26.7425 13.0167 25.4796 13.0167C24.0701 13.0167 22.9049 12.5091 22.0142 11.5093C21.7548 11.2402 21.5481 10.9671 21.4015 10.7018C21.2549 10.4326 21.1234 10.1019 21.0106 9.71739C20.8678 9.22903 20.7889 8.78296 20.7588 8.32152C20.7212 7.77547 20.507 5.9143 19.2967 4.85683C18.6652 4.30694 17.8647 4.07622 16.9175 4.16466C16.0229 4.24926 13.11 4.93758 13.11 10.1904V16.566H17.9887L16.7935 18.6118H13.11V38.2309C13.11 39.9921 13.1965 41.3149 13.3656 42.157C13.5385 43.0068 13.8354 43.7567 14.2564 44.3912C14.4744 44.6988 14.7225 44.9718 14.9968 45.2025H1.37941C1.65379 44.9718 1.90185 44.7026 2.12361 44.3912C2.54457 43.7567 2.8415 43.0068 3.0144 42.1608C3.18354 41.3148 3.26999 39.9921 3.26999 38.2347L3.27374 18.6156H0L8.45687 4.26463C14.418 -0.742049 23.4424 1.81128 23.822 1.9228C25.0173 2.27273 26.0772 2.78417 26.9755 3.44173C27.8701 4.09929 28.5804 4.88374 29.0803 5.77203C29.5765 6.65646 29.8283 7.63319 29.8321 8.67528Z" fill="#3C096C"/>
<path d="M21.7323 38.2308L21.7361 12.8397L21.721 10.6017C21.721 8.84053 21.6346 7.51772 21.4654 6.67558C21.2963 5.82575 20.9956 5.07591 20.5747 4.44142C20.5446 4.39527 20.507 4.35297 20.4732 4.31452C20.4544 4.29144 20.4318 4.26837 20.413 4.24145C20.2026 3.97612 19.9921 3.75694 19.7778 3.5839L19.8868 3.54544C20.6235 3.2878 21.3865 3.06092 22.2097 2.84943L22.2284 2.84559C22.8486 2.68408 23.5552 2.48797 24.3295 2.25725C25.1226 2.02268 25.8104 1.81503 26.4005 1.64198C26.9868 1.4651 27.5431 1.29974 28.0731 1.14208C28.6218 0.980572 29.1668 0.81138 29.6893 0.642183C30.2155 0.472987 30.8432 0.25764 31.5536 0V38.2231C31.5536 39.9881 31.64 41.3071 31.8091 42.153C31.982 43.0029 32.2827 43.7527 32.6999 44.3872C32.9179 44.6948 33.166 44.9679 33.4404 45.1986H19.8492C20.1236 44.9679 20.3717 44.6987 20.5934 44.3872C21.0144 43.7527 21.3113 43.0029 21.4842 42.1569C21.6421 41.3109 21.7323 39.9881 21.7323 38.2308Z" fill="#3C096C"/>
<path d="M65.802 45.1447C65.8246 45.164 65.8434 45.1793 65.8622 45.1986C65.5803 45.2216 58.3487 45.2178 56.3792 45.1986C54.9133 44.4256 53.237 44.2641 51.6546 44.7448C51.4629 44.8025 51.3051 44.8525 51.1435 44.9179C49.6926 45.4985 47.2796 46.133 44.0021 45.8792C41.9161 45.7177 40.4502 45.1947 39.0934 44.1411C37.308 42.7491 36.9885 40.6072 36.9547 39.4536C36.7593 32.6319 48.1779 27.7559 54.0977 27.1637L54.1616 27.1561V25.3064C54.0752 22.7108 53.6091 20.4459 52.9138 19.2461L52.8837 19.1923C52.5943 18.6962 52.2184 18.2694 51.7674 17.9272L51.7486 17.9118C50.9894 17.3503 50.1474 17.0619 49.2454 17.0504C49.1702 17.0504 49.0988 17.0581 49.0274 17.0619L48.8657 17.0735C48.8094 17.0773 48.7492 17.0812 48.6966 17.085C48.6853 17.085 48.6703 17.0889 48.659 17.0889C48.6402 17.0889 48.6177 17.0927 48.5989 17.0965C47.8058 17.2004 47.1293 17.5157 46.588 18.0387C45.7874 18.8077 45.359 19.6653 45.3251 20.5843C45.3101 20.9727 45.3251 21.3457 45.374 21.6841L45.3778 21.7033C45.4041 21.8725 45.4717 22.2263 45.5243 22.4955L45.6709 23.2107C45.686 23.2838 45.701 23.353 45.7123 23.4183C45.7912 23.799 45.8213 24.2105 45.8025 24.6335C45.7611 25.741 45.4642 26.7215 44.9192 27.5444C44.7463 27.8098 44.5471 28.0597 44.3253 28.2866C43.4458 29.2018 42.3709 29.6902 41.123 29.7325C40.1533 29.7671 39.2174 29.4979 38.4845 28.9711C37.9583 28.5942 37.5411 28.1289 37.199 27.5483C37.0224 27.2483 36.8758 26.8984 36.748 26.4793C36.5676 25.8755 36.4886 25.2372 36.5149 24.5797C36.5413 23.8798 36.6653 23.1722 36.8833 22.4685C37.0675 21.8725 37.2968 21.3342 37.5824 20.8189C38.1575 19.7883 39.0633 18.7847 40.345 17.7541C41.45 16.8658 42.7129 16.189 44.1073 15.7391C47.2157 14.7316 52.162 14.2279 55.6087 15.2162C58.9238 16.166 61.5548 18.9962 62.4418 21.2957C63.4341 23.8644 63.934 27.156 63.934 31.0822V38.4615C63.9415 40.0881 64.028 41.3147 64.1896 42.1107C64.3625 42.9606 64.6594 43.7104 65.0804 44.3449C65.1029 44.3757 65.1255 44.4064 65.1518 44.4333H65.148L65.2119 44.5141C65.3999 44.7641 65.5991 44.9678 65.802 45.1447ZM54.1654 37.5924V28.8749H54.094C52.9927 28.8749 52.1696 29.1595 51.6471 29.3748C51.1171 29.5902 50.5797 29.9209 50.0572 30.3477C49.1101 31.0168 48.4222 31.8513 48.005 32.8318C47.5916 33.8086 47.3811 35.0583 47.3811 36.5426C47.3811 38.3 47.6705 39.6728 48.2343 40.611C48.7116 41.407 49.3807 41.8762 50.2151 42.0031C50.3993 42.03 50.5571 42.0454 50.7187 42.0454C51.7862 42.0454 52.6394 41.6416 53.252 40.8494C53.8572 40.065 54.1654 38.9652 54.1654 37.5924Z" fill="#3C096C"/>
<path d="M103.253 38.2307V25.6794C103.253 24.6219 103.204 23.8144 103.11 23.2837C103.016 22.7492 102.809 22.2532 102.501 21.8148C102.226 21.4149 101.851 21.088 101.388 20.8496C100.321 20.3036 99.1369 20.3997 97.874 20.9957C96.4269 21.6841 95.4835 23.203 95.4647 24.8565L95.4685 38.2307C95.4685 39.9919 95.5549 41.3147 95.7241 42.1607C95.8932 43.0105 96.1939 43.7604 96.6148 44.3948C96.8328 44.7025 97.0809 44.9755 97.3553 45.2062H83.7905C84.0686 44.9755 84.3167 44.7063 84.5347 44.3948C84.9519 43.7604 85.2526 43.0105 85.4255 42.1645C85.5946 41.3186 85.6811 39.9958 85.6811 38.2346V25.6833C85.6811 24.6258 85.6322 23.8183 85.5382 23.2876C85.4405 22.7531 85.2375 22.257 84.9293 21.8187C84.655 21.4187 84.2791 21.0919 83.8168 20.8535C82.7493 20.3074 81.5654 20.4036 80.3025 20.9996C78.8366 21.6994 77.8932 23.2299 77.8932 24.9027V38.2384C77.8932 39.9996 77.9797 41.3224 78.1488 42.1645C78.3217 43.0144 78.6186 43.7642 79.0396 44.3987C79.2576 44.7063 79.5057 44.9794 79.7838 45.2101H66.1739C66.4483 44.9794 66.7001 44.7102 66.9181 44.3987C67.3353 43.7642 67.636 43.0144 67.8089 42.1684C67.978 41.3186 68.0682 39.9996 68.0682 38.2422V25.7563C68.0682 23.9951 67.9705 22.6723 67.7976 21.8302C67.6247 20.9804 67.3278 20.2305 66.9068 19.596C66.873 19.5499 66.8392 19.5076 66.8053 19.4691C66.7828 19.446 66.764 19.423 66.7452 19.3961C66.5347 19.1307 66.3242 18.9154 66.11 18.7385C66.3731 18.6501 69.8836 17.6426 70.6579 17.4157C71.451 17.1811 72.1388 16.9735 72.7289 16.7966C73.3152 16.6235 73.8715 16.4543 74.4015 16.2967C74.9427 16.139 75.4839 15.9698 76.0177 15.7968C76.5439 15.6276 77.1716 15.4122 77.8819 15.1546L77.9007 20.592L78.0285 20.3728C78.6374 19.3307 82.5614 15.1277 89.3645 15.1277C91.5821 15.1277 93.1193 16.4697 94.0176 17.6003C94.5401 18.254 94.9159 19.0461 95.1377 19.9498C95.1903 20.1613 95.2354 20.4035 95.2805 20.6843L95.3106 20.8804L95.6 20.3766C96.2089 19.3345 100.133 15.1315 106.936 15.1315C109.154 15.1315 110.691 16.4774 111.589 17.6041C112.112 18.2617 112.487 19.05 112.709 19.9536C112.935 20.865 113.047 22.1493 113.047 23.7798V38.2422C113.047 40.0034 113.134 41.3263 113.303 42.1722C113.472 43.0221 113.773 43.7719 114.194 44.4064C114.412 44.714 114.664 44.987 114.938 45.2178H101.373C101.648 44.987 101.899 44.7179 102.117 44.4064C102.535 43.7719 102.835 43.0221 103.008 42.1761C103.166 41.3109 103.253 39.9881 103.253 38.2307Z" fill="#3C096C"/>
<path d="M144.101 33.8008H144.586C144.293 35.2082 143.816 36.5618 143.165 37.8193C143.135 37.8692 143.109 37.9192 143.079 37.9692C143.038 38.0423 143 38.1153 142.951 38.1961C142.222 39.5151 141.309 40.7148 140.234 41.7646C137.501 44.4333 133.942 45.9138 130.213 45.9368C130.198 45.9368 130.183 45.9368 130.168 45.9368C130.112 45.9407 130.052 45.9368 129.995 45.933C129.95 45.9291 129.905 45.9253 129.86 45.9253C129.597 45.9176 129.319 45.9061 129.007 45.8792C128.804 45.8638 128.597 45.8484 128.39 45.8215C127.943 45.7676 127.575 45.71 127.229 45.6369C127.191 45.6292 127.15 45.6177 127.112 45.61C127.082 45.6023 127.056 45.5946 127.026 45.5908C121.986 44.4679 117.817 40.6033 116.145 35.5043C115.611 33.8777 115.344 32.2012 115.344 30.5246C115.344 22.0263 121.978 15.1123 130.134 15.1123C130.176 15.1123 130.217 15.1161 130.258 15.12C130.296 15.1238 130.337 15.1277 130.379 15.1277C136.34 15.2277 141.624 19.0192 143.85 24.7796C144.026 25.241 144.184 25.7179 144.316 26.187C144.383 26.5523 144.289 26.9215 144.06 27.206C143.834 27.4829 143.507 27.6406 143.158 27.6406H125.861V27.7136C125.917 35.0237 129.112 38.7306 135.359 38.7306C137.347 38.7306 139.08 38.3153 140.508 37.5001C141.884 36.7118 142.895 35.6774 144.101 33.8008ZM125.816 25.6486H130.119C131.424 25.6486 132.645 25.0372 133.461 23.972C134.273 22.9146 134.562 21.5648 134.258 20.269L134.19 20.2843L134.25 20.2344C134.009 19.1807 133.596 18.3963 133.028 17.9002C132.457 17.4041 131.668 17.1542 130.679 17.1542C129.135 17.1542 127.924 17.8963 127.079 19.3576C126.24 20.8073 125.816 22.8992 125.816 25.5717V25.6486Z" fill="#3C096C"/>
<path d="M146.898 38.2308L146.901 12.8397L146.886 10.6017C146.886 8.84053 146.8 7.51772 146.631 6.67558C146.458 5.82575 146.161 5.07591 145.74 4.44142C145.71 4.39527 145.672 4.35297 145.638 4.31452C145.616 4.29144 145.597 4.26837 145.575 4.24145C145.364 3.97612 145.154 3.75694 144.939 3.5839L145.045 3.54544C145.781 3.2878 146.544 3.06092 147.367 2.84943L147.386 2.84559C148.003 2.68408 148.709 2.48797 149.487 2.25725C150.28 2.02268 150.968 1.81503 151.558 1.64198C152.145 1.4651 152.701 1.29974 153.231 1.14208C153.78 0.980572 154.325 0.81138 154.847 0.642183C155.373 0.472987 155.997 0.25764 156.711 0L156.708 38.2231C156.708 39.9881 156.794 41.3071 156.963 42.153C157.136 43.0029 157.437 43.7527 157.854 44.3872C158.072 44.6948 158.32 44.9679 158.594 45.1986H145.003C145.278 44.9679 145.526 44.6987 145.747 44.3872C146.165 43.7527 146.465 43.0029 146.638 42.1569C146.807 41.3109 146.898 39.9881 146.898 38.2308Z" fill="#3C096C"/>
<path d="M187.851 33.8008H188.336C188.047 35.2082 187.566 36.5618 186.916 37.8193C186.885 37.8692 186.859 37.9192 186.829 37.9692C186.792 38.0423 186.75 38.1153 186.701 38.1961C185.972 39.5151 185.059 40.7148 183.984 41.7646C181.248 44.4333 177.688 45.9138 173.963 45.9368C173.948 45.9368 173.933 45.9368 173.918 45.9368C173.862 45.9407 173.802 45.9368 173.745 45.933C173.7 45.9291 173.655 45.9253 173.61 45.9253C173.351 45.9176 173.073 45.9061 172.757 45.8792C172.558 45.8638 172.347 45.8484 172.14 45.8215C171.693 45.7676 171.325 45.71 170.979 45.6369C170.941 45.6292 170.9 45.6177 170.863 45.61C170.832 45.6023 170.806 45.5946 170.776 45.5908C165.736 44.4679 161.564 40.6033 159.891 35.5043C159.357 33.8777 159.091 32.2012 159.091 30.5246C159.091 22.0263 165.725 15.1123 173.881 15.1123C173.922 15.1123 173.963 15.1161 174.005 15.12C174.042 15.1238 174.084 15.1277 174.125 15.1277C180.082 15.2277 185.371 19.0192 187.596 24.7796C187.773 25.241 187.93 25.7179 188.066 26.187C188.13 26.5523 188.039 26.9215 187.81 27.206C187.585 27.4829 187.258 27.6406 186.908 27.6406H169.611V27.7136C169.667 35.0237 172.862 38.7306 179.109 38.7306C181.097 38.7306 182.83 38.3153 184.258 37.5001C185.63 36.7118 186.641 35.6774 187.851 33.8008ZM169.562 25.6486H173.869C175.174 25.6486 176.391 25.0372 177.211 23.972C178.023 22.9146 178.316 21.5648 178.008 20.269L177.94 20.2843L178 20.2344C177.76 19.1807 177.346 18.3963 176.779 17.9002C176.207 17.4041 175.418 17.1542 174.429 17.1542C172.885 17.1542 171.674 17.8963 170.829 19.3576C169.991 20.8073 169.562 22.8992 169.562 25.5717V25.6486Z" fill="#3C096C"/>
<path d="M218.492 45.1986C218.213 45.2216 210.982 45.2178 209.009 45.1986C207.539 44.4256 205.866 44.2641 204.284 44.7448C204.092 44.8025 203.934 44.8525 203.769 44.9179C202.318 45.4985 199.905 46.133 196.628 45.8792C194.545 45.7177 193.076 45.1947 191.719 44.1411C189.934 42.7491 189.614 40.6072 189.58 39.4536C189.385 32.6319 200.804 27.7559 206.727 27.1637L206.787 27.1561V25.3064C206.701 22.7108 206.235 20.4459 205.539 19.2461L205.509 19.1923C205.22 18.6962 204.844 18.2694 204.393 17.9272L204.374 17.9118C203.615 17.3503 202.773 17.0619 201.871 17.0504C201.8 17.0504 201.728 17.0581 201.657 17.0619L201.495 17.0735C201.439 17.0773 201.382 17.0812 201.33 17.085C201.318 17.085 201.307 17.0889 201.292 17.0889C201.273 17.0889 201.255 17.0927 201.236 17.0965C200.443 17.2004 199.766 17.5157 199.225 18.0387C198.421 18.8077 197.996 19.6653 197.958 20.5843C197.943 20.9727 197.962 21.3457 198.011 21.6841L198.015 21.7033C198.037 21.8725 198.109 22.2263 198.161 22.4955L198.308 23.2107C198.323 23.2838 198.338 23.353 198.349 23.4183C198.428 23.799 198.458 24.2105 198.439 24.6335C198.394 25.741 198.101 26.7215 197.56 27.5444C197.387 27.8098 197.184 28.0597 196.966 28.2866C196.086 29.2018 195.008 29.6902 193.764 29.7325C192.794 29.7671 191.858 29.4979 191.129 28.9711C190.603 28.5942 190.182 28.1289 189.84 27.5483C189.663 27.2483 189.516 26.8984 189.392 26.4793C189.212 25.8755 189.133 25.2372 189.159 24.5797C189.186 23.8798 189.31 23.1722 189.528 22.4685C189.712 21.8725 189.941 21.3342 190.231 20.8189C190.806 19.7883 191.708 18.7847 192.993 17.7541C194.098 16.8658 195.361 16.189 196.752 15.7391C199.86 14.7316 204.81 14.2279 208.253 15.2162C211.568 16.166 214.203 18.9962 215.09 21.2957C216.079 23.8644 216.582 27.156 216.582 31.0822V38.4615C216.593 40.0881 216.68 41.3147 216.838 42.1107C217.011 42.9606 217.308 43.7104 217.729 44.3449C217.751 44.3757 217.774 44.4064 217.8 44.4333H217.796L217.86 44.5141C218.048 44.7487 218.243 44.9563 218.446 45.1294C218.454 45.1601 218.473 45.1793 218.492 45.1986ZM206.795 37.5924L206.791 28.8749H206.72C205.622 28.8749 204.799 29.1595 204.273 29.3748C203.743 29.5902 203.205 29.9209 202.683 30.3477C201.736 31.0168 201.048 31.8513 200.631 32.8318C200.217 33.8086 200.007 35.0583 200.007 36.5426C200.007 38.3 200.296 39.6728 200.86 40.611C201.337 41.407 202.006 41.8762 202.841 42.0031C203.025 42.03 203.183 42.0454 203.341 42.0454C204.412 42.0454 205.261 41.6416 205.874 40.8494C206.487 40.065 206.795 38.9652 206.795 37.5924Z" fill="#3C096C"/>
<path d="M238.311 38.2307V25.6794C238.311 24.6219 238.266 23.8144 238.168 23.2837C238.07 22.7492 237.867 22.2532 237.559 21.8148C237.285 21.4149 236.909 21.088 236.446 20.8496C235.383 20.3036 234.195 20.3997 232.932 20.9957C231.466 21.6956 230.523 23.2261 230.523 24.8988V38.2346C230.523 39.9958 230.609 41.3186 230.778 42.1607C230.951 43.0105 231.252 43.7604 231.673 44.3949C231.887 44.7025 232.139 44.9755 232.413 45.2062H218.804C219.078 44.9755 219.33 44.7063 219.548 44.3949C219.969 43.7604 220.266 43.0105 220.439 42.1645C220.608 41.3186 220.694 39.9958 220.694 38.2384V37.6616L220.69 37.5924L220.698 27.9905L220.683 25.7525C220.683 23.9913 220.596 22.6685 220.427 21.8263C220.258 20.9765 219.957 20.2267 219.536 19.5922C219.506 19.546 219.473 19.5037 219.435 19.4653C219.412 19.4422 219.394 19.4153 219.375 19.3922C219.161 19.1269 218.954 18.9077 218.74 18.7347C219.003 18.6424 222.513 17.6387 223.288 17.4118C224.081 17.1773 224.772 16.9696 225.359 16.7966C225.945 16.6235 226.501 16.4543 227.031 16.2967C227.58 16.1352 228.121 15.966 228.651 15.7968C229.181 15.6276 229.809 15.4122 230.515 15.1546L230.534 20.592L230.662 20.3728C231.267 19.3307 235.191 15.1277 241.994 15.1277C244.212 15.1277 245.749 16.4736 246.647 17.6003C247.166 18.2578 247.546 19.0461 247.767 19.9498C247.993 20.8611 248.106 22.1455 248.106 23.7759L248.109 38.2384C248.109 39.9996 248.196 41.3224 248.365 42.1684C248.538 43.0182 248.835 43.7681 249.256 44.4026C249.478 44.7102 249.726 44.9832 250 45.2139H236.435C236.71 44.9832 236.961 44.714 237.179 44.4026C237.6 43.7681 237.897 43.0182 238.07 42.1722C238.224 41.3147 238.311 39.9919 238.311 38.2307Z" fill="#3C096C"/>
</svg>
