<svg width="60" height="60" viewBox="0 0 60 60" fill="none" xmlns="http://www.w3.org/2000/svg">
<path fill-rule="evenodd" clip-rule="evenodd" d="M30 0C35.9334 0 41.7336 1.75947 46.6671 5.05591C51.6006 8.35235 55.4457 13.0377 57.7164 18.5195C59.987 24.0013 60.5811 30.0333 59.4235 35.8527C58.266 41.6721 55.4088 47.0176 51.2132 51.2132C47.0176 55.4088 41.6721 58.266 35.8527 59.4235C30.0333 60.5811 24.0013 59.987 18.5195 57.7164C13.0377 55.4457 8.35235 51.6006 5.05591 46.6671C1.75947 41.7336 0 35.9334 0 30C0 22.0435 3.1607 14.4129 8.78679 8.78679C14.4129 3.1607 22.0435 0 30 0Z" fill="#3C096C"/>
<path fill-rule="evenodd" clip-rule="evenodd" d="M15.8691 26.0693H21.0254C21.3069 26.0706 21.5763 26.1833 21.7749 26.3828C21.9735 26.5822 22.085 26.8523 22.085 27.1337V41.2695C22.0837 41.5505 21.9718 41.8198 21.7735 42.019C21.5752 42.2182 21.3065 42.3313 21.0254 42.3339H15.8691C15.5872 42.3326 15.3172 42.2201 15.1179 42.0207C14.9185 41.8214 14.806 41.5514 14.8047 41.2695V27.1337C14.806 26.8518 14.9185 26.5818 15.1179 26.3825C15.3172 26.1831 15.5872 26.0706 15.8691 26.0693ZM29.3945 15.4687C29.9512 12.6269 34.5996 15.2441 34.9072 19.8193C34.9759 21.4456 34.843 23.0742 34.5117 24.6679H41.1572C43.916 24.7802 46.3281 26.7577 44.624 30.0048C45.0146 31.4208 45.0732 33.081 44.0185 33.7402C44.1504 35.9716 43.5303 37.3583 42.373 38.4521C42.351 39.4705 42.0504 40.4635 41.5039 41.3232C40.6103 42.5829 39.8877 42.2997 38.4814 42.2997H27.251C25.4736 42.2997 24.5068 41.8114 23.3447 40.3466V27.832C26.7187 26.9384 28.4961 22.3632 29.3945 19.3603V15.454V15.4687Z" fill="white"/>
</svg>
