<svg width="150" height="34" viewBox="0 0 150 34" fill="none" xmlns="http://www.w3.org/2000/svg">
<path d="M17.8992 11.2062C17.8992 11.9445 17.6512 12.5698 17.1641 13.0635C16.6747 13.5596 16.0455 13.811 15.2878 13.811C14.4421 13.811 13.743 13.5065 13.2085 12.9066C13.0529 12.7451 12.9289 12.5813 12.8409 12.4221C12.753 12.2606 12.674 12.0622 12.6064 11.8315C12.5207 11.5384 12.4733 11.2708 12.4553 10.9939C12.4327 10.6663 12.3042 9.5496 11.578 8.91511C11.1991 8.58518 10.7188 8.44675 10.1505 8.49982C9.61376 8.55058 7.86601 8.96357 7.86601 12.1152V15.9406H10.7932L10.0761 17.1681H7.86601V28.9395C7.86601 29.9962 7.91788 30.7899 8.01936 31.2952C8.1231 31.8051 8.30126 32.255 8.55384 32.6357C8.68464 32.8203 8.83348 32.9841 8.9981 33.1225H0.827645C0.992272 32.9841 1.14111 32.8226 1.27417 32.6357C1.52674 32.255 1.7049 31.8051 1.80864 31.2975C1.91012 30.7899 1.96199 29.9963 1.96199 28.9418L1.96425 17.1704H0L5.07412 8.5598C8.65081 5.55579 14.0655 7.08779 14.2932 7.1547C15.0104 7.36466 15.6463 7.67152 16.1853 8.06606C16.722 8.46059 17.1483 8.93127 17.4482 9.46424C17.7459 9.9949 17.897 10.5809 17.8992 11.2062Z" fill="white"/>
<path d="M13.0394 28.9396L13.0416 13.7049L13.0326 12.3621C13.0326 11.3054 12.9808 10.5117 12.8793 10.0064C12.7778 9.49655 12.5974 9.04664 12.3448 8.66595C12.3268 8.63826 12.3042 8.61288 12.2839 8.58981C12.2726 8.57596 12.2591 8.56212 12.2478 8.54597C12.1215 8.38677 11.9952 8.25526 11.8667 8.15144L11.9321 8.12836C12.3741 7.97378 12.8319 7.83765 13.3258 7.71075L13.3371 7.70845C13.7092 7.61155 14.1331 7.49388 14.5977 7.35545C15.0735 7.21471 15.4862 7.09011 15.8403 6.98629C16.1921 6.88016 16.5259 6.78094 16.8438 6.68635C17.1731 6.58944 17.5001 6.48793 17.8136 6.38641C18.1293 6.28489 18.5059 6.15568 18.9321 6.0011V28.9349C18.9321 29.994 18.984 30.7853 19.0855 31.2929C19.1892 31.8028 19.3696 32.2527 19.62 32.6334C19.7508 32.818 19.8996 32.9818 20.0642 33.1202H11.9095C12.0742 32.9818 12.223 32.8203 12.3561 32.6334C12.6086 32.2527 12.7868 31.8028 12.8905 31.2952C12.9853 30.7876 13.0394 29.994 13.0394 28.9396Z" fill="white"/>
<path d="M39.4812 33.0879C39.4947 33.0995 39.506 33.1087 39.5173 33.1202C39.3482 33.1341 35.0092 33.1318 33.8275 33.1202C32.948 32.6565 31.9422 32.5596 30.9928 32.848C30.8778 32.8826 30.783 32.9126 30.6861 32.9518C29.8156 33.3002 28.3678 33.6809 26.4013 33.5286C25.1496 33.4317 24.2701 33.1179 23.456 32.4858C22.3848 31.6505 22.1931 30.3654 22.1728 29.6732C22.0556 25.5802 28.9068 22.6547 32.4586 22.2993L32.497 22.2947V21.185C32.4451 19.6276 32.1655 18.2686 31.7483 17.5488L31.7302 17.5165C31.5566 17.2188 31.3311 16.9627 31.0604 16.7574L31.0492 16.7482C30.5936 16.4113 30.0885 16.2383 29.5472 16.2313C29.5021 16.2313 29.4593 16.236 29.4164 16.2383L29.3194 16.2452C29.2856 16.2475 29.2495 16.2498 29.218 16.2521C29.2112 16.2521 29.2022 16.2544 29.1954 16.2544C29.1841 16.2544 29.1706 16.2567 29.1593 16.259C28.6835 16.3213 28.2776 16.5105 27.9528 16.8243C27.4725 17.2857 27.2154 17.8003 27.1951 18.3517C27.1861 18.5847 27.1951 18.8085 27.2244 19.0116L27.2267 19.0231C27.2424 19.1246 27.283 19.3369 27.3146 19.4984L27.4026 19.9275C27.4116 19.9714 27.4206 20.0129 27.4274 20.0521C27.4747 20.2805 27.4928 20.5274 27.4815 20.7812C27.4567 21.4457 27.2785 22.034 26.9515 22.5278C26.8478 22.687 26.7283 22.8369 26.5952 22.9731C26.0675 23.5222 25.4225 23.8152 24.6738 23.8406C24.092 23.8614 23.5304 23.6998 23.0907 23.3837C22.775 23.1576 22.5246 22.8785 22.3194 22.5301C22.2134 22.3501 22.1255 22.1402 22.0488 21.8887C21.9405 21.5264 21.8932 21.1434 21.909 20.7489C21.9248 20.329 21.9992 19.9045 22.13 19.4822C22.2405 19.1246 22.3781 18.8016 22.5494 18.4924C22.8945 17.8741 23.438 17.2719 24.207 16.6536C24.87 16.1206 25.6277 15.7145 26.4644 15.4446C28.3294 14.8401 31.2972 14.5378 33.3652 15.1308C35.3543 15.7007 36.9329 17.3988 37.4651 18.7785C38.0605 20.3197 38.3604 22.2947 38.3604 24.6504V29.078C38.3649 30.0539 38.4168 30.79 38.5137 31.2675C38.6175 31.7774 38.7956 32.2274 39.0482 32.608C39.0618 32.6265 39.0753 32.645 39.0911 32.6611H39.0888L39.1272 32.7096C39.2399 32.8595 39.3594 32.9818 39.4812 33.0879ZM32.4992 28.5566V23.3261H32.4564C31.7956 23.3261 31.3017 23.4968 30.9883 23.626C30.6703 23.7552 30.3478 23.9536 30.0343 24.2097C29.466 24.6112 29.0533 25.1119 28.803 25.7002C28.5549 26.2862 28.4287 27.0361 28.4287 27.9267C28.4287 28.9811 28.6023 29.8048 28.9406 30.3677C29.227 30.8453 29.6284 31.1268 30.129 31.2029C30.2396 31.2191 30.3343 31.2283 30.4312 31.2283C31.0717 31.2283 31.5836 30.9861 31.9512 30.5108C32.3143 30.0401 32.4992 29.3802 32.4992 28.5566Z" fill="white"/>
<path d="M61.9516 28.9396V21.4088C61.9516 20.7743 61.9222 20.2898 61.8659 19.9714C61.8095 19.6507 61.6854 19.353 61.5005 19.09C61.3359 18.85 61.1104 18.6539 60.833 18.5109C60.1925 18.1833 59.4821 18.2409 58.7244 18.5986C57.8562 19.0116 57.2901 19.9229 57.2789 20.915L57.2811 28.9396C57.2811 29.9963 57.333 30.7899 57.4345 31.2975C57.5359 31.8074 57.7164 32.2573 57.9689 32.638C58.0997 32.8226 58.2486 32.9864 58.4132 33.1249H50.2743C50.4412 32.9864 50.59 32.8249 50.7208 32.638C50.9712 32.2573 51.1516 31.8074 51.2553 31.2998C51.3568 30.7922 51.4087 29.9986 51.4087 28.9419V21.4111C51.4087 20.7766 51.3793 20.2921 51.323 19.9737C51.2643 19.653 51.1426 19.3553 50.9576 19.0923C50.793 18.8524 50.5675 18.6562 50.2901 18.5132C49.6496 18.1856 48.9392 18.2432 48.1815 18.6009C47.302 19.0208 46.736 19.9391 46.736 20.9427V28.9442C46.736 30.0009 46.7878 30.7946 46.8893 31.2998C46.993 31.8097 47.1712 32.2596 47.4238 32.6403C47.5546 32.8249 47.7034 32.9887 47.8703 33.1272H39.7043C39.869 32.9887 40.0201 32.8272 40.1509 32.6403C40.4012 32.2596 40.5816 31.8097 40.6853 31.3021C40.7868 30.7923 40.841 30.0009 40.841 28.9465V21.4549C40.841 20.3982 40.7823 19.6045 40.6786 19.0992C40.5748 18.5893 40.3967 18.1394 40.1441 17.7587C40.1238 17.731 40.1035 17.7057 40.0832 17.6826C40.0697 17.6687 40.0584 17.6549 40.0471 17.6388C39.9208 17.4796 39.7946 17.3503 39.666 17.2442C39.8239 17.1912 41.9302 16.5867 42.3948 16.4505C42.8706 16.3098 43.2833 16.1852 43.6374 16.0791C43.9892 15.9752 44.3229 15.8737 44.6409 15.7791C44.9657 15.6845 45.2904 15.583 45.6106 15.4792C45.9263 15.3777 46.303 15.2485 46.7292 15.0939L46.7405 18.3563L46.8171 18.2248C47.1825 17.5995 49.5369 15.0777 53.6187 15.0777C54.9493 15.0777 55.8716 15.883 56.4106 16.5613C56.7241 16.9535 56.9496 17.4288 57.0826 17.971C57.1142 18.0979 57.1413 18.2432 57.1683 18.4117L57.1864 18.5293L57.36 18.2271C57.7254 17.6018 60.0798 15.08 64.1616 15.08C65.4922 15.08 66.4145 15.8876 66.9535 16.5636C67.267 16.9581 67.4925 17.4311 67.6255 17.9733C67.7609 18.5201 67.8285 19.2907 67.8285 20.269V28.9465C67.8285 30.0032 67.8804 30.7969 67.9819 31.3045C68.0833 31.8144 68.2638 32.2643 68.5163 32.645C68.6471 32.8295 68.7982 32.9933 68.9629 33.1318H60.824C60.9886 32.9933 61.1397 32.8318 61.2705 32.645C61.5208 32.2643 61.7012 31.8144 61.805 31.3068C61.8997 30.7876 61.9516 29.994 61.9516 28.9396Z" fill="white"/>
<path d="M86.4608 26.2816H86.7517C86.5758 27.1261 86.2894 27.9382 85.8993 28.6927C85.8812 28.7227 85.8654 28.7527 85.8474 28.7827C85.8226 28.8265 85.8 28.8703 85.7707 28.9188C85.3332 29.7102 84.7852 30.43 84.1402 31.0599C82.5007 32.6611 80.3651 33.5494 78.128 33.5632C78.119 33.5632 78.1099 33.5632 78.1009 33.5632C78.0671 33.5655 78.031 33.5632 77.9972 33.5609C77.9701 33.5586 77.9431 33.5563 77.916 33.5563C77.7581 33.5517 77.5912 33.5448 77.4041 33.5286C77.2823 33.5194 77.1583 33.5102 77.0342 33.494C76.7659 33.4617 76.5448 33.4271 76.3374 33.3833C76.3148 33.3787 76.29 33.3717 76.2675 33.3671C76.2494 33.3625 76.2336 33.3579 76.2156 33.3556C73.1914 32.6819 70.6904 30.3631 69.6869 27.3037C69.3667 26.3278 69.2065 25.3218 69.2065 24.3159C69.2065 19.2169 73.1869 15.0685 78.0806 15.0685C78.1054 15.0685 78.1302 15.0708 78.155 15.0731C78.1776 15.0754 78.2024 15.0777 78.2272 15.0777C81.8039 15.1377 84.9747 17.4127 86.3097 20.8689C86.4157 21.1458 86.5104 21.4318 86.5893 21.7133C86.6299 21.9325 86.5736 22.154 86.436 22.3247C86.3007 22.4909 86.1045 22.5855 85.8948 22.5855H75.5165V22.6293C75.5503 27.0153 77.4672 29.2395 81.2153 29.2395C82.4083 29.2395 83.4479 28.9903 84.3049 28.5012C85.1303 28.0282 85.7369 27.4076 86.4608 26.2816ZM75.4894 21.3903H78.0716C78.8541 21.3903 79.5871 21.0235 80.0764 20.3844C80.5635 19.7499 80.7372 18.94 80.5545 18.1625L80.5139 18.1717L80.55 18.1417C80.4057 17.5096 80.1576 17.0389 79.8171 16.7413C79.4743 16.4436 79.0007 16.2936 78.4076 16.2936C77.4807 16.2936 76.7546 16.7389 76.2472 17.6157C75.7443 18.4855 75.4894 19.7406 75.4894 21.3442V21.3903Z" fill="white"/>
<path d="M88.1386 28.9396L88.1408 13.7049L88.1318 12.3621C88.1318 11.3054 88.0799 10.5117 87.9784 10.0064C87.8747 9.49655 87.6966 9.04664 87.444 8.66595C87.4259 8.63826 87.4034 8.61288 87.3831 8.58981C87.3695 8.57596 87.3583 8.56212 87.3447 8.54597C87.2185 8.38677 87.0922 8.25526 86.9636 8.15144L87.0268 8.12836C87.4688 7.97378 87.9266 7.83765 88.4205 7.71075L88.4317 7.70845C88.8016 7.61155 89.2255 7.49388 89.6924 7.35545C90.1682 7.21471 90.5809 7.09011 90.935 6.98629C91.2868 6.88016 91.6205 6.78094 91.9385 6.68635C92.2678 6.58944 92.5948 6.48793 92.9082 6.38641C93.224 6.28489 93.5983 6.15568 94.0268 6.0011L94.0245 28.9349C94.0245 29.994 94.0764 30.7853 94.1779 31.2929C94.2816 31.8028 94.462 32.2527 94.7124 32.6334C94.8432 32.818 94.992 32.9818 95.1566 33.1202H87.002C87.1666 32.9818 87.3154 32.8203 87.4485 32.6334C87.6988 32.2527 87.8792 31.8028 87.9829 31.2952C88.0844 30.7876 88.1386 29.994 88.1386 28.9396Z" fill="white"/>
<path d="M112.711 26.2816H113.002C112.828 27.1261 112.539 27.9382 112.149 28.6927C112.131 28.7227 112.116 28.7527 112.097 28.7827C112.075 28.8265 112.05 28.8703 112.021 28.9188C111.583 29.7102 111.035 30.43 110.39 31.0599C108.749 32.6611 106.613 33.5494 104.378 33.5632C104.369 33.5632 104.36 33.5632 104.351 33.5632C104.317 33.5655 104.281 33.5632 104.247 33.5609C104.22 33.5586 104.193 33.5563 104.166 33.5563C104.01 33.5517 103.844 33.5448 103.654 33.5286C103.535 33.5194 103.408 33.5102 103.284 33.494C103.016 33.4617 102.795 33.4271 102.587 33.3833C102.565 33.3787 102.54 33.3717 102.518 33.3671C102.499 33.3625 102.484 33.3579 102.466 33.3556C99.4415 32.6819 96.9382 30.3631 95.9347 27.3037C95.6145 26.3278 95.4543 25.3218 95.4543 24.3159C95.4543 19.2169 99.4347 15.0685 104.328 15.0685C104.353 15.0685 104.378 15.0708 104.403 15.0731C104.425 15.0754 104.45 15.0777 104.475 15.0777C108.049 15.1377 111.222 17.4127 112.558 20.8689C112.664 21.1458 112.758 21.4318 112.839 21.7133C112.878 21.9325 112.824 22.154 112.686 22.3247C112.551 22.4909 112.355 22.5855 112.145 22.5855H101.767V22.6293C101.8 27.0153 103.717 29.2395 107.465 29.2395C108.658 29.2395 109.698 28.9903 110.555 28.5012C111.378 28.0282 111.985 27.4076 112.711 26.2816ZM101.737 21.3903H104.322C105.104 21.3903 105.835 21.0235 106.326 20.3844C106.814 19.7499 106.99 18.94 106.805 18.1625L106.764 18.1717L106.8 18.1417C106.656 17.5096 106.408 17.0389 106.067 16.7413C105.724 16.4436 105.251 16.2936 104.658 16.2936C103.731 16.2936 103.005 16.7389 102.497 17.6157C101.994 18.4855 101.737 19.7406 101.737 21.3442V21.3903Z" fill="white"/>
<path d="M131.095 33.1202C130.928 33.1341 126.589 33.1318 125.405 33.1202C124.523 32.6565 123.52 32.5596 122.57 32.848C122.455 32.8826 122.361 32.9126 122.261 32.9518C121.391 33.3002 119.943 33.6809 117.977 33.5286C116.727 33.4317 115.846 33.1179 115.031 32.4858C113.96 31.6505 113.769 30.3654 113.748 29.6732C113.631 25.5802 120.482 22.6547 124.036 22.2993L124.072 22.2947V21.185C124.02 19.6276 123.741 18.2686 123.324 17.5488L123.306 17.5165C123.132 17.2188 122.906 16.9627 122.636 16.7574L122.625 16.7482C122.169 16.4113 121.664 16.2383 121.123 16.2313C121.08 16.2313 121.037 16.236 120.994 16.2383L120.897 16.2452C120.863 16.2475 120.829 16.2498 120.798 16.2521C120.791 16.2521 120.784 16.2544 120.775 16.2544C120.764 16.2544 120.753 16.2567 120.741 16.259C120.266 16.3213 119.86 16.5105 119.535 16.8243C119.052 17.2857 118.798 17.8003 118.775 18.3517C118.766 18.5847 118.777 18.8085 118.807 19.0116L118.809 19.0231C118.822 19.1246 118.865 19.3369 118.897 19.4984L118.985 19.9275C118.994 19.9714 119.003 20.0129 119.01 20.0521C119.057 20.2805 119.075 20.5274 119.064 20.7812C119.037 21.4457 118.861 22.034 118.536 22.5278C118.432 22.687 118.31 22.8369 118.18 22.9731C117.652 23.5222 117.005 23.8152 116.258 23.8406C115.676 23.8614 115.115 23.6998 114.677 23.3837C114.362 23.1576 114.109 22.8785 113.904 22.5301C113.798 22.3501 113.71 22.1402 113.635 21.8887C113.527 21.5264 113.48 21.1434 113.496 20.7489C113.511 20.329 113.586 19.9045 113.717 19.4822C113.827 19.1246 113.965 18.8016 114.138 18.4924C114.483 17.8741 115.025 17.2719 115.796 16.6536C116.459 16.1206 117.217 15.7145 118.051 15.4446C119.916 14.8401 122.886 14.5378 124.952 15.1308C126.941 15.7007 128.522 17.3988 129.054 18.7785C129.647 20.3197 129.949 22.2947 129.949 24.6504V29.078C129.956 30.0539 130.008 30.79 130.103 31.2675C130.206 31.7774 130.385 32.2274 130.637 32.608C130.651 32.6265 130.664 32.645 130.68 32.6611H130.678L130.716 32.7096C130.829 32.8503 130.946 32.9749 131.068 33.0787C131.072 33.0972 131.084 33.1087 131.095 33.1202ZM124.077 28.5566L124.075 23.3261H124.032C123.373 23.3261 122.879 23.4968 122.564 23.626C122.246 23.7552 121.923 23.9536 121.61 24.2097C121.041 24.6112 120.629 25.1119 120.378 25.7002C120.13 26.2862 120.004 27.0361 120.004 27.9267C120.004 28.9811 120.178 29.8048 120.516 30.3677C120.802 30.8453 121.204 31.1268 121.704 31.2029C121.815 31.2191 121.91 31.2283 122.004 31.2283C122.647 31.2283 123.157 30.9861 123.524 30.5108C123.892 30.0401 124.077 29.3802 124.077 28.5566Z" fill="white"/>
<path d="M142.986 28.9396V21.4088C142.986 20.7743 142.959 20.2898 142.901 19.9714C142.842 19.6507 142.72 19.353 142.535 19.09C142.371 18.85 142.145 18.6539 141.868 18.5109C141.23 18.1833 140.517 18.2409 139.759 18.5986C138.88 19.0185 138.314 19.9368 138.314 20.9404V28.9419C138.314 29.9986 138.366 30.7922 138.467 31.2975C138.571 31.8074 138.751 32.2573 139.004 32.638C139.132 32.8226 139.283 32.9864 139.448 33.1249H131.282C131.447 32.9864 131.598 32.8249 131.729 32.638C131.981 32.2573 132.159 31.8074 132.263 31.2998C132.365 30.7923 132.416 29.9986 132.416 28.9442V28.5981L132.414 28.5566L132.419 22.7954L132.41 21.4526C132.41 20.3959 132.358 19.6022 132.256 19.0969C132.155 18.587 131.974 18.1371 131.722 17.7564C131.704 17.7287 131.684 17.7034 131.661 17.6803C131.647 17.6664 131.636 17.6503 131.625 17.6364C131.496 17.4773 131.372 17.3457 131.244 17.2419C131.402 17.1865 133.508 16.5843 133.973 16.4482C134.448 16.3075 134.863 16.1829 135.215 16.0791C135.567 15.9752 135.901 15.8737 136.219 15.7791C136.548 15.6822 136.873 15.5807 137.191 15.4792C137.509 15.3777 137.885 15.2485 138.309 15.0939L138.32 18.3563L138.397 18.2248C138.76 17.5995 141.115 15.0777 145.196 15.0777C146.527 15.0777 147.449 15.8853 147.988 16.5613C148.3 16.9558 148.527 17.4288 148.66 17.971C148.796 18.5178 148.863 19.2884 148.863 20.2667L148.866 28.9442C148.866 30.0009 148.917 30.7946 149.019 31.3022C149.123 31.812 149.301 32.262 149.553 32.6426C149.687 32.8272 149.835 32.991 150 33.1295H141.861C142.026 32.991 142.177 32.8295 142.308 32.6426C142.56 32.262 142.738 31.812 142.842 31.3045C142.935 30.7899 142.986 29.9963 142.986 28.9396Z" fill="white"/>
<path d="M25.4653 3.04782C25.6705 3.31777 25.9727 3.5831 26.1914 3.92457C27.1724 5.38043 28.9968 8.42135 30.4221 11.5892C33.0539 9.97642 30.9431 6.10259 30.9431 6.10259L30.7897 6.6171C29.8583 4.53368 28.0429 3.46774 28.0429 3.46774L28.1083 3.91765C27.2784 2.8494 25.1563 2.42026 25.1563 2.42026C25.1563 2.42026 24.473 4.51983 24.9714 5.7865L24.6218 5.50733C24.6218 5.50733 24.6331 7.65074 25.9433 9.50575L25.4314 9.38809C25.4314 9.38809 27.5378 12.9297 30.0906 11.7668C30.0906 11.7668 27.9234 6.81553 26.1035 3.97071C25.7066 3.38468 25.4653 3.04782 25.4653 3.04782Z" fill="white"/>
<path d="M29.0915 1.64022C29.0915 1.7693 28.99 1.87303 28.8638 1.87303C28.7375 1.87303 28.636 1.7693 28.636 1.64022C28.636 1.51114 28.7375 1.40741 28.8638 1.40741C28.99 1.40741 29.0915 1.51114 29.0915 1.64022Z" fill="white"/>
<path d="M32.6998 1.64022C32.6998 1.7693 32.5983 1.87303 32.472 1.87303C32.3457 1.87303 32.2443 1.7693 32.2443 1.64022C32.2443 1.51114 32.3457 1.40741 32.472 1.40741C32.5983 1.40741 32.6998 1.51114 32.6998 1.64022Z" fill="white"/>
<path d="M30.9205 0.232804C30.9205 0.361887 30.819 0.465616 30.6927 0.465616C30.5665 0.465616 30.465 0.361887 30.465 0.232804C30.465 0.103722 30.5665 0 30.6927 0C30.819 0 30.9205 0.103722 30.9205 0.232804Z" fill="white"/>
<path d="M35.0271 3.90383C35.4218 3.31779 35.645 2.92557 35.645 2.92557C35.4398 3.19551 35.176 3.4793 34.955 3.82308C34.2852 4.81749 33.2252 6.55253 32.145 8.55059C32.1766 8.73747 32.1969 8.92435 32.2104 9.10893C33.002 7.48234 34.0642 5.40583 35.0271 3.90383Z" fill="white"/>
<path d="M31.942 11.9376C31.6646 11.9376 31.3782 11.8915 31.085 11.7853C31.0625 11.7784 31.0467 11.7576 31.0444 11.7346C31.0422 11.7115 31.0512 11.6884 31.0692 11.6723C31.7841 11.1162 32.1089 10.2533 32.0299 9.11124C32.0299 9.09971 32.0322 9.08817 32.0367 9.07894C32.6659 7.78689 33.5432 6.05417 34.3956 4.61907C33.7732 5.59964 32.9433 6.9909 32.0841 8.58058C32.0705 8.60366 32.0457 8.6175 32.0187 8.61288C31.9916 8.60827 31.9713 8.5875 31.9668 8.55981C31.7526 7.26084 31.1527 6.0011 30.8122 5.36661C30.8009 5.34354 30.8031 5.31816 30.8167 5.2974C31.7526 3.98228 32.9072 3.29242 32.9207 3.2855C32.941 3.27396 32.9681 3.27396 32.9884 3.28781C33.0087 3.30165 33.02 3.32703 33.0154 3.3501L32.9816 3.58543C33.8882 2.63255 35.7464 2.24724 35.8276 2.23109C35.8592 2.22417 35.8908 2.24263 35.8998 2.27493C35.9269 2.35799 36.5155 4.19916 36.1524 5.47736L36.335 5.332C36.3531 5.31585 36.3802 5.31355 36.4027 5.32508C36.4253 5.33662 36.4388 5.35969 36.4388 5.38276C36.4388 5.40353 36.414 7.46157 35.1985 9.28198L35.5525 9.20123C35.5773 9.19661 35.6021 9.20584 35.6179 9.2266C35.6337 9.24737 35.6337 9.27506 35.6202 9.29813C35.5954 9.32582 34.0145 11.9376 31.942 11.9376ZM31.2361 11.7C33.2951 12.3414 35.0271 9.95569 35.4217 9.36042L35.0609 9.44348C35.0361 9.4481 35.009 9.43887 34.9955 9.4158C34.982 9.39273 34.982 9.36504 34.9977 9.34197C36.0937 7.79151 36.2719 6.01726 36.3012 5.51659L36.0577 5.71039C36.0351 5.72885 36.0035 5.72885 35.981 5.71039C35.9584 5.69194 35.9494 5.66194 35.9607 5.63425C36.4005 4.51755 35.893 2.70638 35.7916 2.36722C35.4533 2.44336 33.6649 2.88635 32.932 3.8277C32.914 3.85077 32.8824 3.85769 32.8576 3.84615C32.8305 3.83461 32.817 3.80693 32.8192 3.77694L32.8644 3.46546C32.5554 3.6685 31.6804 4.30298 30.9384 5.33431C31.27 5.95727 31.8202 7.12472 32.0548 8.35216C33.1417 6.35411 34.1724 4.68598 34.7835 3.77694C34.9301 3.54852 35.0947 3.34779 35.2526 3.15398C35.3315 3.05939 35.4059 2.9671 35.4736 2.87712C35.4939 2.84943 35.5322 2.84482 35.5593 2.86328C35.5863 2.88173 35.5954 2.92096 35.5773 2.94864C35.5751 2.95326 35.3473 3.3524 34.9571 3.93152C33.9807 5.4589 32.8959 7.58847 32.154 9.11124C32.2261 10.2487 31.9172 11.1162 31.2361 11.7Z" fill="white"/>
</svg>
