<svg width="40" height="26" viewBox="0 0 40 26" fill="none" xmlns="http://www.w3.org/2000/svg">
<path d="M37.8667 0H2.13333C0.955126 0 0 0.955126 0 2.13333V22.9867C0 24.1649 0.955126 25.12 2.13333 25.12H37.8667C39.0449 25.12 40 24.1649 40 22.9867V2.13333C40 0.955126 39.0449 0 37.8667 0Z" fill="#2557D6"/>
<path d="M0.00014352 11.7969H1.92143L2.35464 10.7564H3.32451L3.75659 11.7969H7.53687V11.0014L7.8743 11.8003H9.83674L10.1742 10.9895V11.7969H19.5689L19.5645 10.0889H19.7463C19.8736 10.0932 19.9107 10.105 19.9107 10.3142V11.7969H24.7697V11.3993C25.1616 11.6084 25.7712 11.7969 26.5734 11.7969H28.6175L29.055 10.7564H30.0249L30.4527 11.7969H34.3919V10.8085L34.9885 11.7969H38.1451V5.26318H35.0211V6.03482L34.5836 5.26318H31.378V6.03482L30.9763 5.26318H26.6463C25.9215 5.26318 25.2844 5.36393 24.7697 5.64469V5.26318H21.7816V5.64469C21.4542 5.35531 21.0079 5.26318 20.5117 5.26318H9.59509L8.86262 6.95073L8.11042 5.26318H4.67197V6.03482L4.29424 5.26318H1.36179L0 8.36967V11.7969H0.00014352ZM12.128 10.8545H10.9752L10.9709 7.18546L9.34039 10.8545H8.35307L6.71827 7.18221V10.8545H4.43117L3.99909 9.80955H1.65779L1.22131 10.8545H2.66667e-06L2.01367 6.1698H3.68436L5.59685 10.6052V6.1698H7.43215L8.90377 9.34778L10.2556 6.1698H12.1278V10.8545H12.128ZM3.61478 8.83732L2.84513 6.96975L2.07988 8.83732H3.61478ZM16.7157 10.8545H12.9593V6.1698H16.7157V7.14533H14.0838V7.98974H16.6526V8.95002H14.0838V9.88557H16.7157V10.8545ZM22.0093 7.43147C22.0093 8.17838 21.5087 8.56427 21.217 8.68014C21.463 8.77339 21.6732 8.93815 21.7732 9.07465C21.932 9.30765 21.9594 9.51578 21.9594 9.93417V10.8545H20.8252L20.821 10.2637C20.821 9.98179 20.8481 9.5764 20.6434 9.35103C20.4791 9.18627 20.2287 9.15052 19.8238 9.15052H18.6167V10.8545H17.4923V6.1698H20.0787C20.6534 6.1698 21.0768 6.18492 21.4403 6.39418C21.7961 6.60345 22.0093 6.90894 22.0093 7.43147ZM20.5879 8.1271C20.4334 8.2205 20.2506 8.22361 20.0316 8.22361H18.6656V7.18307H20.0502C20.2462 7.18307 20.4507 7.19184 20.5835 7.26757C20.7294 7.33582 20.8196 7.48108 20.8196 7.68172C20.8196 7.88647 20.7337 8.05122 20.5879 8.1271ZM23.8127 10.8545H22.6654V6.1698H23.8127V10.8545ZM37.1322 10.8545H35.5387L33.4072 7.33835V10.8545H31.1172L30.6796 9.80955H28.3436L27.9191 10.8545H26.6033C26.0567 10.8545 25.3647 10.7341 24.9727 10.3363C24.5775 9.93855 24.3719 9.39978 24.3719 8.54788C24.3719 7.85311 24.4948 7.21796 24.9781 6.71606C25.3417 6.34218 25.911 6.1698 26.6859 6.1698H27.7745V7.17359H26.7087C26.2983 7.17359 26.0666 7.23435 25.8434 7.45111C25.6517 7.64836 25.5202 8.02125 25.5202 8.51227C25.5202 9.01417 25.6203 9.37604 25.8294 9.61243C26.0025 9.79782 26.3171 9.85406 26.6131 9.85406H27.1181L28.7029 6.16994H30.3878L32.2916 10.601V6.16994H34.0038L35.9804 9.43256V6.16994H37.1322V10.8545ZM30.2971 8.83732L29.5189 6.96975L28.745 8.83732H30.2971Z" fill="white"/>
<path d="M39.9978 18.3345C39.7246 18.7322 39.1923 18.9339 38.4718 18.9339H36.3002V17.9291H38.463C38.6775 17.9291 38.8277 17.901 38.9181 17.8131C38.9964 17.7406 39.051 17.6353 39.051 17.5074C39.051 17.3709 38.9964 17.2626 38.9137 17.1976C38.8321 17.1261 38.7133 17.0936 38.5175 17.0936C37.4616 17.0578 36.1444 17.1261 36.1444 15.6433C36.1444 14.9636 36.5777 14.2482 37.7578 14.2482H39.9976L39.9978 13.3159H37.9165C37.2885 13.3159 36.8323 13.4657 36.5092 13.6986V13.3159H33.431C32.9388 13.3159 32.361 13.4374 32.0877 13.6986V13.3159H26.5909V13.6986C26.1534 13.3843 25.4153 13.3159 25.0746 13.3159H21.4488V13.6986C21.1027 13.3648 20.3331 13.3159 19.864 13.3159H15.8061L14.8775 14.3166L14.0079 13.3159H7.94629V19.8542H13.8938L14.8506 18.8376L15.7519 19.8542L19.418 19.8574V18.3194H19.7784C20.2648 18.3268 20.8385 18.3073 21.3447 18.0895V19.854H24.3685V18.1499H24.5144C24.7005 18.1499 24.7188 18.1576 24.7188 18.3428V19.8539H33.9047C34.4879 19.8539 35.0975 19.7052 35.435 19.4355V19.8539H38.3488C38.9551 19.8539 39.5472 19.7692 39.9978 19.5525V18.3345ZM21.7842 15.8196C21.7842 17.1212 20.809 17.39 19.8261 17.39H18.423V18.9617H16.2373L14.8527 17.4105L13.4137 18.9617H8.95956V14.2759H13.4823L14.8658 15.8118L16.2961 14.2759H19.8892C20.7816 14.2759 21.7842 14.5219 21.7842 15.8196ZM12.8442 17.976H10.0795V17.0437H12.5482V16.0877H10.0795V15.2358H12.8987L14.1287 16.6013L12.8442 17.976ZM17.299 18.5126L15.5725 16.6039L17.299 14.7558V18.5126ZM19.8522 16.4291H18.399V15.2358H19.8652C20.2712 15.2358 20.553 15.4006 20.553 15.8103C20.553 16.2156 20.2843 16.4291 19.8522 16.4291ZM27.4652 14.2759H31.2182V15.2449H28.585V16.0968H31.1539V17.0528H28.585V17.9851L31.2182 17.9894V18.9617H27.4652V14.2759ZM26.0223 16.7841C26.2726 16.8761 26.4772 17.041 26.5732 17.1775C26.732 17.4062 26.7549 17.6197 26.7595 18.0328V18.9617H25.6306V18.3754C25.6306 18.0935 25.6578 17.6761 25.4488 17.4582C25.2845 17.2904 25.034 17.2502 24.6238 17.2502H23.4221V18.9617H22.2921V14.2759H24.8883C25.4576 14.2759 25.8722 14.3009 26.2413 14.497C26.5962 14.7105 26.8194 15.003 26.8194 15.5375C26.8192 16.2854 26.3183 16.6671 26.0223 16.7841ZM25.3867 16.1917C25.2363 16.2806 25.0502 16.2882 24.8314 16.2882H23.4654V15.2358H24.85C25.0503 15.2358 25.2506 15.24 25.3867 15.3204C25.5324 15.3963 25.6195 15.5414 25.6195 15.7419C25.6195 15.9425 25.5324 16.104 25.3867 16.1917ZM35.538 16.4902C35.7569 16.7158 35.8743 17.0007 35.8743 17.483C35.8743 18.491 35.2418 18.9615 34.1078 18.9615H31.9176V17.9567H34.099C34.3123 17.9567 34.4635 17.9286 34.5583 17.8407C34.6356 17.7682 34.6911 17.663 34.6911 17.5351C34.6911 17.3986 34.6311 17.2902 34.5539 17.2252C34.4679 17.1537 34.3493 17.1212 34.1535 17.1212C33.1019 17.0855 31.7849 17.1537 31.7849 15.6709C31.7849 14.9913 32.2137 14.2759 33.3926 14.2759H35.6469V15.2732H33.5842C33.3797 15.2732 33.2467 15.2808 33.1337 15.3578C33.0105 15.4337 32.9648 15.5463 32.9648 15.6949C32.9648 15.8717 33.0694 15.992 33.2108 16.044C33.3295 16.0851 33.4569 16.0971 33.6485 16.0971L34.2538 16.1133C34.8642 16.1282 35.2833 16.2333 35.538 16.4902ZM40.0001 15.2358H37.9507C37.746 15.2358 37.6101 15.2434 37.4956 15.3204C37.377 15.3963 37.3313 15.5089 37.3313 15.6576C37.3313 15.8344 37.4315 15.9546 37.5772 16.0066C37.6958 16.0477 37.8232 16.0597 38.0105 16.0597L38.62 16.076C39.235 16.0911 39.6455 16.1964 39.8958 16.4531C39.9413 16.4889 39.9687 16.529 40.0001 16.5691V15.2358Z" fill="white"/>
</svg>
