<svg width="40" height="26" viewBox="0 0 40 26" fill="none" xmlns="http://www.w3.org/2000/svg">
<path d="M2.82011 0C1.2629 0 0 1.23491 0 2.75788V22.3621C0 23.8854 1.2625 25.12 2.82011 25.12H37.1799C38.7371 25.12 40 23.8851 40 22.3621V13.4654V2.75788C40 1.23462 38.7375 0 37.1799 0H2.82011Z" fill="#4D4D4D"/>
<path d="M16.7771 8.11719C17.2302 8.11719 17.6103 8.20959 18.0728 8.43249V9.61046C17.6347 9.20333 17.2546 9.03295 16.752 9.03295C15.7641 9.03295 14.9872 9.81031 14.9872 10.7959C14.9872 11.8352 15.7401 12.5664 16.801 12.5664C17.2786 12.5664 17.6516 12.4048 18.0728 12.0042V13.1828C17.5938 13.3972 17.2056 13.4818 16.752 13.4818C15.148 13.4818 13.9017 12.3119 13.9017 10.8032C13.9017 9.31072 15.1812 8.11719 16.7771 8.11719ZM11.7969 8.14965C12.389 8.14965 12.9308 8.34227 13.3837 8.71886L12.8326 9.40477C12.5582 9.11247 12.2987 8.98916 11.9831 8.98916C11.5291 8.98916 11.1984 9.23483 11.1984 9.55807C11.1984 9.83531 11.3841 9.98204 12.0161 10.2043C13.2143 10.6208 13.5694 10.9901 13.5694 11.8055C13.5694 12.7992 12.8015 13.4909 11.7069 13.4909C10.9053 13.4909 10.3226 13.1909 9.83726 12.5139L10.5177 11.891C10.7603 12.3368 11.165 12.5756 11.6674 12.5756C12.1373 12.5756 12.4852 12.2674 12.4852 11.8515C12.4852 11.636 12.3798 11.4511 12.1694 11.3204C12.0634 11.2586 11.8536 11.1663 11.4412 11.0281C10.4519 10.6896 10.1125 10.3277 10.1125 9.62057C10.1125 8.78053 10.8414 8.14965 11.7969 8.14965ZM23.834 8.23914H24.9846L26.4248 11.6869L27.8835 8.23914H29.0255L26.6924 13.5039H26.1256L23.834 8.23914ZM3.45715 8.24703H5.00333C6.71162 8.24703 7.90247 9.30226 7.90247 10.8171C7.90247 11.5725 7.53816 12.3028 6.9221 12.7875C6.4037 13.1966 5.81305 13.3801 4.99521 13.3801H3.45715V8.24703ZM8.38714 8.24703H9.44053V13.3801H8.38714V8.24703ZM29.5017 8.24703H32.489V9.11678H30.5543V10.2561H32.4177V11.1255H30.5543V12.511H32.489V13.3801H29.5017V8.24703ZM33.1867 8.24703H34.7485C35.9634 8.24703 36.6596 8.80154 36.6596 9.76254C36.6596 10.5484 36.2229 11.0642 35.4295 11.2177L37.1294 13.3801H35.8341L34.3761 11.318H34.2388V13.3801H33.1867V8.24703ZM34.2388 9.0555V10.61H34.5466C35.2192 10.61 35.5757 10.3324 35.5757 9.81644C35.5757 9.3169 35.2192 9.0555 34.5632 9.0555H34.2388ZM4.50974 9.11678V12.511H4.79239C5.47306 12.511 5.90294 12.3871 6.2339 12.1031C6.5982 11.7947 6.81733 11.3024 6.81733 10.8098C6.81733 10.318 6.5982 9.84025 6.2339 9.53188C5.88597 9.23264 5.47306 9.11678 4.79239 9.11678H4.50974Z" fill="white"/>
<path d="M21.2887 8.08301C22.8754 8.08301 24.1616 9.2653 24.1616 10.7258V10.7275C24.1616 12.188 22.8754 13.372 21.2887 13.372C19.702 13.372 18.4158 12.188 18.4158 10.7275V10.7258C18.4158 9.2653 19.702 8.08301 21.2887 8.08301ZM39.999 14.4582C38.6631 15.3773 28.6617 21.946 11.345 25.119H37.1789C38.7361 25.119 39.999 23.8841 39.999 22.3612V14.4582Z" fill="#F47216"/>
</svg>
