<svg width="40" height="26" viewBox="0 0 40 26" fill="none" xmlns="http://www.w3.org/2000/svg">
<path d="M37.8667 0H2.13333C0.955126 0 0 0.955126 0 2.13333V22.9867C0 24.1649 0.955126 25.12 2.13333 25.12H37.8667C39.0449 25.12 40 24.1649 40 22.9867V2.13333C40 0.955126 39.0449 0 37.8667 0Z" fill="black"/>
<path d="M11.7936 22.4893V21.164C11.7936 20.6557 11.4843 20.3245 10.9766 20.3245C10.7099 20.3245 10.4246 20.413 10.2256 20.6978C10.071 20.4546 9.8523 20.3245 9.51896 20.3245C9.26722 20.3136 9.02683 20.4298 8.87896 20.6338V20.3672H8.45923V22.4877H8.87896V21.2744C8.87896 20.901 9.09976 20.7224 9.40909 20.7224C9.71843 20.7224 9.89496 20.9213 9.89496 21.2744V22.4893H10.3147V21.2744C10.3147 20.901 10.5355 20.7224 10.8448 20.7224C11.1542 20.7224 11.3307 20.9213 11.3307 21.2744V22.4893H11.7936ZM18.6854 20.3906H17.912V19.7506H17.4934V20.3906H17.0518V20.764H17.4934V21.7602C17.4934 22.2461 17.6699 22.5336 18.2 22.5336C18.4009 22.5294 18.5977 22.4763 18.7734 22.3789L18.6406 22.0056C18.5214 22.08 18.3832 22.1184 18.2427 22.116C18.0219 22.116 17.9115 21.9832 17.9115 21.7624V20.7469H18.6848V20.3933L18.6854 20.3906ZM22.6171 20.3245C22.3845 20.3193 22.1664 20.4368 22.0427 20.6338V20.3672H21.623V22.4877H22.0427V21.2968C22.0427 20.9432 22.2192 20.7224 22.5067 20.7224C22.6037 20.7263 22.7 20.7411 22.7936 20.7666L22.9264 20.3688C22.8251 20.3432 22.7215 20.3284 22.6171 20.3245ZM16.6752 20.5453C16.4544 20.3906 16.1451 20.3245 15.8139 20.3245C15.2838 20.3245 14.9526 20.5677 14.9526 20.9874C14.9526 21.341 15.1958 21.5394 15.6592 21.6061L15.88 21.628C16.1232 21.6722 16.2779 21.7608 16.2779 21.8712C16.2779 22.0258 16.1014 22.1378 15.7696 22.1378C15.5163 22.143 15.2682 22.0655 15.063 21.917L14.8422 22.2482C15.1515 22.469 15.527 22.5149 15.7488 22.5149C16.3675 22.5149 16.6987 22.228 16.6987 21.8301C16.6987 21.4568 16.432 21.2781 15.9696 21.2114L15.7488 21.1896C15.5499 21.1677 15.3755 21.101 15.3755 20.9688C15.3755 20.8141 15.552 20.7021 15.7952 20.7021C16.0619 20.7021 16.3254 20.8125 16.4582 20.8786L16.6752 20.5453ZM23.0811 21.429C23.0811 22.069 23.5008 22.5336 24.1856 22.5336C24.495 22.5336 24.7158 22.4674 24.9366 22.2904L24.7158 21.9592C24.5594 22.0858 24.3649 22.1559 24.1638 22.1581C23.7904 22.1581 23.5008 21.8712 23.5008 21.4514C23.5008 21.0317 23.7867 20.7469 24.1638 20.7469C24.3649 20.7491 24.5594 20.8192 24.7158 20.9458L24.9366 20.6146C24.7158 20.4381 24.495 20.3714 24.1856 20.3714C23.5227 20.3272 23.0811 20.7912 23.0811 21.4317V21.429ZM20.1211 20.3245C19.5024 20.3245 19.0827 20.7661 19.0827 21.429C19.0827 22.092 19.5243 22.5336 20.1648 22.5336C20.4764 22.5401 20.7807 22.4388 21.0262 22.2466L20.8054 21.9373C20.6279 22.0748 20.4112 22.1522 20.1867 22.1581C19.8998 22.1581 19.5904 21.9816 19.5467 21.6061H21.1152V21.4296C21.1152 20.7666 20.7174 20.325 20.1211 20.325V20.3245ZM20.0992 20.7224C20.4086 20.7224 20.6294 20.9213 20.6512 21.2525H19.503C19.5691 20.9432 19.7696 20.7224 20.0992 20.7224ZM14.3782 21.429V20.3688H13.9584V20.6354C13.8038 20.4365 13.5851 20.3261 13.2736 20.3261C12.6774 20.3261 12.2352 20.7901 12.2352 21.4306C12.2352 22.0712 12.6768 22.5352 13.2736 22.5352C13.583 22.5352 13.8038 22.4248 13.9584 22.2258V22.4925H14.3782V21.429ZM12.6774 21.429C12.6774 21.0312 12.9206 20.7224 13.3403 20.7224C13.7382 20.7224 13.9803 21.0317 13.9803 21.429C13.9803 21.8488 13.7136 22.1357 13.3403 22.1357C12.9206 22.1576 12.6774 21.8264 12.6774 21.429ZM29.0016 20.3245C28.7691 20.3193 28.5509 20.4368 28.4272 20.6338V20.3672H28.0075V22.4877H28.4267V21.2968C28.4267 20.9432 28.6032 20.7224 28.8907 20.7224C28.9877 20.7263 29.0839 20.7411 29.1776 20.7666L29.3104 20.3688C29.2092 20.3432 29.1055 20.3284 29.0011 20.3245H29.0016ZM27.367 21.429V20.3688H26.9472V20.6354C26.7926 20.4365 26.5739 20.3261 26.2624 20.3261C25.6662 20.3261 25.224 20.7901 25.224 21.4306C25.224 22.0712 25.6656 22.5352 26.2624 22.5352C26.5718 22.5352 26.7926 22.4248 26.9472 22.2258V22.4925H27.367V21.429ZM25.6662 21.429C25.6662 21.0312 25.9094 20.7224 26.3291 20.7224C26.727 20.7224 26.9691 21.0317 26.9691 21.429C26.9691 21.8488 26.7024 22.1357 26.3291 22.1357C25.9094 22.1576 25.6662 21.8264 25.6662 21.429ZM31.6304 21.429V19.5293H31.2107V20.6338C31.056 20.4349 30.8374 20.3245 30.5259 20.3245C29.9296 20.3245 29.4875 20.7885 29.4875 21.429C29.4875 22.0696 29.9291 22.5336 30.5259 22.5336C30.8352 22.5336 31.056 22.4232 31.2107 22.2242V22.4909H31.6304V21.429ZM29.9296 21.429C29.9296 21.0312 30.1728 20.7224 30.5926 20.7224C30.9904 20.7224 31.2326 21.0317 31.2326 21.429C31.2326 21.8488 30.9659 22.1357 30.5926 22.1357C30.1723 22.1581 29.9291 21.8269 29.9291 21.429H29.9296Z" fill="white"/>
<path d="M23.8544 4.2876H16.1893V16.79H23.8544V4.2876Z" fill="#FF5F00"/>
<path d="M16.9626 10.5386C16.9632 8.10189 18.0779 5.79922 19.9888 4.28735C16.7286 1.72408 12.046 2.09667 9.23217 5.14324C6.41838 8.18982 6.41838 12.8873 9.23217 15.9339C12.046 18.9804 16.7286 19.353 19.9888 16.7898C18.0779 15.2779 16.9632 12.9752 16.9626 10.5386Z" fill="#EB001B"/>
<path d="M32.8672 10.5387C32.8695 13.5812 31.1337 16.3577 28.3977 17.6884C25.6616 19.019 22.4059 18.6701 20.0139 16.7899C21.9253 15.2784 23.0401 12.9755 23.0401 10.5387C23.0401 8.10188 21.9253 5.79899 20.0139 4.28749C22.4059 2.40725 25.6616 2.05834 28.3977 3.38902C31.1337 4.7197 32.8695 7.4962 32.8672 10.5387Z" fill="#F79E1B"/>
</svg>
