<svg width="30" height="26" viewBox="0 0 30 26" fill="none" xmlns="http://www.w3.org/2000/svg">
<path d="M5.5828 1.97492H1.2178C0.710805 1.97492 0.299805 1.56392 0.299805 1.05692C0.299805 0.549916 0.710805 0.138916 1.2178 0.138916H5.5828C6.0898 0.138916 6.5008 0.549916 6.5008 1.05692C6.5008 1.56392 6.0898 1.97492 5.5828 1.97492ZM25.3348 21.2679H10.4068C9.8998 21.2679 9.4888 20.8569 9.4888 20.3499C9.4888 19.8429 9.8998 19.4319 10.4068 19.4319H25.3378C25.8448 19.4319 26.2558 19.8429 26.2558 20.3499C26.2558 20.8569 25.8418 21.2679 25.3348 21.2679ZM28.7818 5.64992H6.9598C6.4528 5.64992 6.0418 5.23892 6.0418 4.73192C6.0418 4.22492 6.4528 3.81392 6.9598 3.81392H28.7788C29.2858 3.81392 29.6968 4.22492 29.6968 4.73192C29.6998 5.23892 29.2888 5.64992 28.7818 5.64992ZM27.3448 11.1639H8.3968C7.8898 11.1639 7.4788 10.7529 7.4788 10.2459C7.4788 9.73892 7.8898 9.32792 8.3968 9.32792H27.3448C27.8518 9.32792 28.2628 9.73892 28.2628 10.2459C28.2628 10.7499 27.8518 11.1639 27.3448 11.1639ZM26.0248 16.6749H9.8308C9.3238 16.6749 8.9128 16.2639 8.9128 15.7569C8.9128 15.2499 9.3238 14.8389 9.8308 14.8389H26.0248C26.5318 14.8389 26.9428 15.2499 26.9428 15.7569C26.9428 16.2639 26.5318 16.6749 26.0248 16.6749ZM17.6398 16.5609C17.1328 16.5609 16.7218 16.1499 16.7218 15.6429V5.76392C16.7218 5.25692 17.1328 4.84592 17.6398 4.84592C18.1468 4.84592 18.5578 5.25692 18.5578 5.76392V15.6399C18.5608 16.1499 18.1498 16.5609 17.6398 16.5609ZM23.9638 5.10392L22.7878 14.9109C22.7278 15.4149 22.2688 15.7749 21.7648 15.7149C21.2608 15.6549 20.9008 15.1959 20.9608 14.6949L22.1398 4.88792C22.1998 4.38392 22.6588 4.02392 23.1628 4.08392C23.6668 4.14392 24.0238 4.60292 23.9638 5.10392ZM29.6488 4.97792L26.9998 15.6579C26.8798 16.1499 26.3818 16.4529 25.8868 16.3299C25.3948 16.2099 25.0918 15.7119 25.2148 15.2169L27.8638 4.53692C27.9838 4.04492 28.4818 3.74192 28.9768 3.86492C29.4688 3.98792 29.7688 4.48592 29.6488 4.97792ZM13.5448 15.8559C13.0408 15.9219 12.5818 15.5649 12.5158 15.0609L11.3338 5.83292C11.2678 5.32892 11.6248 4.86992 12.1288 4.80392C12.6328 4.73792 13.0918 5.09492 13.1578 5.59892L14.3398 14.8269C14.4028 15.3309 14.0488 15.7899 13.5448 15.8559ZM10.5778 21.0519C10.0828 21.1749 9.5848 20.8749 9.4618 20.3829L4.7398 1.46492C4.6168 0.972916 4.9168 0.474916 5.4118 0.351916C5.9068 0.228916 6.4048 0.528916 6.5278 1.02092L11.2468 19.9389C11.3698 20.4309 11.0698 20.9319 10.5778 21.0519ZM12.0148 25.8609C11.0008 25.8609 10.1788 25.0389 10.1788 24.0249C10.1788 23.0109 11.0008 22.1859 12.0148 22.1859C13.0288 22.1859 13.8508 23.0079 13.8508 24.0249C13.8508 25.0389 13.0288 25.8609 12.0148 25.8609ZM23.2678 25.8609C22.2538 25.8609 21.4318 25.0389 21.4318 24.0249C21.4318 23.0109 22.2538 22.1859 23.2678 22.1859C24.2818 22.1859 25.1068 23.0079 25.1068 24.0249C25.1068 25.0389 24.2818 25.8609 23.2678 25.8609Z" fill="white"/>
</svg>
