<svg width="40" height="26" viewBox="0 0 40 26" fill="none" xmlns="http://www.w3.org/2000/svg">
<path d="M2.05128 0H37.9487C39.0816 0 40 0.91841 40 2.05128V23.5897C40 24.7227 39.0816 25.641 37.9487 25.641H2.05128C0.91841 25.641 0 24.7227 0 23.5897V2.05128C0 0.91841 0.91841 0 2.05128 0Z" fill="#0E4595"/>
<path d="M15.0357 17.8834L16.7465 7.84439H19.4829L17.7709 17.8834H15.0357ZM27.6567 8.0608C27.1147 7.85742 26.2651 7.63916 25.2043 7.63916C22.5005 7.63916 20.5958 9.0007 20.5797 10.9521C20.5644 12.3947 21.9394 13.1994 22.9772 13.6796C24.0424 14.1717 24.4004 14.4855 24.3954 14.9249C24.3887 15.5978 23.5448 15.9052 22.7584 15.9052C21.6631 15.9052 21.0813 15.7531 20.1826 15.3782L19.83 15.2187L19.446 17.4661C20.0851 17.7463 21.267 17.9891 22.4941 18.0016C25.3705 18.0016 27.2376 16.6557 27.259 14.5718C27.2692 13.4298 26.5402 12.5607 24.9615 11.8442C24.0051 11.3798 23.4193 11.0699 23.4255 10.5997C23.4255 10.1824 23.9213 9.73613 24.9926 9.73613C25.8874 9.72229 26.5356 9.91742 27.0407 10.1207L27.2858 10.2366L27.6567 8.0608ZM34.6983 7.84424H32.5838C31.9288 7.84424 31.4386 8.02306 31.1509 8.67675L27.0871 17.8767H29.9605C29.9605 17.8767 30.4303 16.6397 30.5365 16.3681C30.8506 16.3681 33.6419 16.3724 34.041 16.3724C34.1229 16.7239 34.3738 17.8767 34.3738 17.8767H36.913L34.6983 7.84393V7.84424ZM31.3435 14.3268C31.5697 13.7484 32.4337 11.5205 32.4337 11.5205C32.4175 11.5473 32.6583 10.9393 32.7965 10.5623L32.9814 11.4279C32.9814 11.4279 33.5054 13.8243 33.6149 14.3268H31.3435ZM12.7127 7.84424L10.0337 14.6904L9.74826 13.2991C9.24954 11.6954 7.6957 9.95783 5.95862 9.08793L8.40816 17.8674L11.3033 17.8641L15.6112 7.84413H12.7127" fill="white"/>
<path d="M7.5342 7.84396H3.12184L3.08691 8.05283C6.51963 8.8838 8.79102 10.892 9.73409 13.3046L8.77461 8.69129C8.60897 8.05565 8.12861 7.86596 7.5343 7.84375" fill="#F2AE14"/>
</svg>
