<svg width="250" height="56" viewBox="0 0 250 56" fill="none" xmlns="http://www.w3.org/2000/svg">
<path d="M29.8321 18.677C29.8321 19.9075 29.4186 20.9496 28.6068 21.7725C27.7911 22.5993 26.7425 23.0184 25.4796 23.0184C24.0701 23.0184 22.9049 22.5108 22.0142 21.511C21.7548 21.2419 21.5481 20.9688 21.4015 20.7035C21.2549 20.4343 21.1234 20.1036 21.0106 19.7191C20.8678 19.2307 20.7889 18.7847 20.7588 18.3232C20.7212 17.7772 20.507 15.916 19.2967 14.8585C18.6652 14.3086 17.8647 14.0779 16.9175 14.1664C16.0229 14.251 13.11 14.9393 13.11 20.1921V26.5677H17.9887L16.7935 28.6135H13.11V48.2326C13.11 49.9938 13.1965 51.3166 13.3656 52.1587C13.5385 53.0085 13.8354 53.7584 14.2564 54.3929C14.4744 54.7005 14.7225 54.9735 14.9968 55.2042H1.37941C1.65379 54.9735 1.90185 54.7044 2.12361 54.3929C2.54457 53.7584 2.8415 53.0085 3.0144 52.1625C3.18354 51.3166 3.26999 49.9938 3.26999 48.2364L3.27374 28.6173H0L8.45687 14.2663C14.418 9.25966 23.4424 11.813 23.822 11.9245C25.0173 12.2744 26.0772 12.7859 26.9755 13.4434C27.8701 14.101 28.5804 14.8855 29.0803 15.7737C29.5765 16.6582 29.8283 17.6349 29.8321 18.677Z" fill="white"/>
<path d="M21.7323 48.2326L21.7361 22.8416L21.721 20.6035C21.721 18.8424 21.6346 17.5196 21.4654 16.6774C21.2963 15.8276 20.9956 15.0777 20.5747 14.4433C20.5446 14.3971 20.507 14.3548 20.4732 14.3163C20.4544 14.2933 20.4318 14.2702 20.413 14.2433C20.2026 13.978 19.9921 13.7588 19.7778 13.5857L19.8868 13.5473C20.6235 13.2896 21.3865 13.0628 22.2097 12.8513L22.2284 12.8474C22.8486 12.6859 23.5552 12.4898 24.3295 12.2591C25.1226 12.0245 25.8104 11.8169 26.4005 11.6438C26.9868 11.4669 27.5431 11.3016 28.0731 11.1439C28.6218 10.9824 29.1668 10.8132 29.6893 10.644C30.2155 10.4748 30.8432 10.2595 31.5536 10.0018V48.2249C31.5536 49.9899 31.64 51.3089 31.8091 52.1549C31.982 53.0047 32.2827 53.7546 32.6999 54.389C32.9179 54.6967 33.166 54.9697 33.4404 55.2004H19.8492C20.1236 54.9697 20.3717 54.7005 20.5934 54.389C21.0144 53.7546 21.3113 53.0047 21.4842 52.1587C21.6421 51.3127 21.7323 49.9899 21.7323 48.2326Z" fill="white"/>
<path d="M65.802 55.1466C65.8246 55.1658 65.8434 55.1812 65.8622 55.2004C65.5803 55.2235 58.3487 55.2196 56.3792 55.2004C54.9133 54.4275 53.237 54.266 51.6546 54.7466C51.4629 54.8043 51.3051 54.8543 51.1435 54.9197C49.6926 55.5003 47.2796 56.1348 44.0021 55.881C41.9161 55.7195 40.4502 55.1966 39.0934 54.1429C37.308 52.7509 36.9885 50.609 36.9547 49.4554C36.7593 42.6337 48.1779 37.7578 54.0977 37.1656L54.1616 37.1579V35.3083C54.0752 32.7126 53.6091 30.4477 52.9138 29.2479L52.8837 29.1941C52.5943 28.6981 52.2184 28.2712 51.7674 27.929L51.7486 27.9136C50.9894 27.3522 50.1474 27.0638 49.2454 27.0522C49.1702 27.0522 49.0988 27.0599 49.0274 27.0638L48.8657 27.0753C48.8094 27.0792 48.7492 27.083 48.6966 27.0868C48.6853 27.0868 48.6703 27.0907 48.659 27.0907C48.6402 27.0907 48.6177 27.0945 48.5989 27.0984C47.8058 27.2022 47.1293 27.5175 46.588 28.0405C45.7874 28.8096 45.359 29.6671 45.3251 30.5861C45.3101 30.9745 45.3251 31.3475 45.374 31.6859L45.3778 31.7051C45.4041 31.8743 45.4717 32.2281 45.5243 32.4973L45.6709 33.2125C45.686 33.2856 45.701 33.3548 45.7123 33.4202C45.7912 33.8009 45.8213 34.2123 45.8025 34.6353C45.7611 35.7428 45.4642 36.7234 44.9192 37.5463C44.7463 37.8116 44.5471 38.0616 44.3253 38.2884C43.4458 39.2036 42.3709 39.692 41.123 39.7343C40.1533 39.7689 39.2174 39.4997 38.4845 38.9729C37.9583 38.5961 37.5411 38.1308 37.199 37.5501C37.0224 37.2502 36.8758 36.9002 36.748 36.4811C36.5676 35.8774 36.4886 35.239 36.5149 34.5815C36.5413 33.8816 36.6653 33.1741 36.8833 32.4704C37.0675 31.8743 37.2968 31.336 37.5824 30.8207C38.1575 29.7901 39.0633 28.7865 40.345 27.7559C41.45 26.8677 42.7129 26.1909 44.1073 25.741C47.2157 24.7335 52.162 24.2297 55.6087 25.218C58.9238 26.1678 61.5548 28.998 62.4418 31.2975C63.4341 33.8662 63.934 37.1579 63.934 41.084V48.4633C63.9415 50.0899 64.028 51.3166 64.1896 52.1126C64.3625 52.9624 64.6594 53.7122 65.0804 54.3467C65.1029 54.3775 65.1255 54.4083 65.1518 54.4352H65.148L65.2119 54.5159C65.3999 54.7659 65.5991 54.9697 65.802 55.1466ZM54.1654 47.5943V38.8768H54.094C52.9927 38.8768 52.1696 39.1613 51.6471 39.3767C51.1171 39.592 50.5797 39.9227 50.0572 40.3496C49.1101 41.0186 48.4222 41.8531 48.005 42.8337C47.5916 43.8104 47.3811 45.0601 47.3811 46.5444C47.3811 48.3018 47.6705 49.6746 48.2343 50.6129C48.7116 51.4089 49.3807 51.878 50.2151 52.0049C50.3993 52.0318 50.5571 52.0472 50.7187 52.0472C51.7862 52.0472 52.6394 51.6434 53.252 50.8513C53.8572 50.0668 54.1654 48.9671 54.1654 47.5943Z" fill="white"/>
<path d="M103.253 48.2327V35.6814C103.253 34.6239 103.204 33.8164 103.11 33.2857C103.016 32.7512 102.809 32.2551 102.501 31.8168C102.226 31.4168 101.851 31.09 101.388 30.8516C100.321 30.3055 99.1369 30.4017 97.874 30.9977C96.4269 31.686 95.4835 33.2049 95.4647 34.8584L95.4685 48.2327C95.4685 49.9939 95.5549 51.3167 95.7241 52.1626C95.8932 53.0125 96.1939 53.7623 96.6148 54.3968C96.8328 54.7044 97.0809 54.9775 97.3553 55.2082H83.7905C84.0686 54.9775 84.3167 54.7083 84.5347 54.3968C84.9519 53.7623 85.2526 53.0125 85.4255 52.1665C85.5946 51.3205 85.6811 49.9977 85.6811 48.2365V35.6852C85.6811 34.6277 85.6322 33.8202 85.5382 33.2895C85.4405 32.755 85.2375 32.259 84.9293 31.8206C84.655 31.4207 84.2791 31.0938 83.8168 30.8554C82.7493 30.3094 81.5654 30.4055 80.3025 31.0015C78.8366 31.7014 77.8932 33.2319 77.8932 34.9046V48.2404C77.8932 50.0016 77.9797 51.3244 78.1488 52.1665C78.3217 53.0163 78.6186 53.7662 79.0396 54.4007C79.2576 54.7083 79.5057 54.9813 79.7838 55.212H66.1739C66.4483 54.9813 66.7001 54.7121 66.9181 54.4007C67.3353 53.7662 67.636 53.0163 67.8089 52.1703C67.978 51.3205 68.0682 50.0015 68.0682 48.2442V35.7583C68.0682 33.9971 67.9705 32.6743 67.7976 31.8321C67.6247 30.9823 67.3278 30.2325 66.9068 29.598C66.873 29.5518 66.8392 29.5095 66.8053 29.4711C66.7828 29.448 66.764 29.4249 66.7452 29.398C66.5347 29.1327 66.3242 28.9173 66.11 28.7405C66.3731 28.652 69.8836 27.6445 70.6579 27.4176C71.451 27.1831 72.1388 26.9754 72.7289 26.7985C73.3152 26.6255 73.8715 26.4563 74.4015 26.2986C74.9427 26.141 75.4839 25.9718 76.0177 25.7987C76.5439 25.6295 77.1716 25.4142 77.8819 25.1566L77.9007 30.5939L78.0285 30.3747C78.6374 29.3326 82.5614 25.1296 89.3645 25.1296C91.5821 25.1296 93.1193 26.4717 94.0176 27.6022C94.5401 28.2559 94.9159 29.0481 95.1377 29.9517C95.1903 30.1632 95.2354 30.4055 95.2805 30.6862L95.3106 30.8823L95.6 30.3786C96.2089 29.3365 100.133 25.1335 106.936 25.1335C109.154 25.1335 110.691 26.4794 111.589 27.6061C112.112 28.2636 112.487 29.0519 112.709 29.9556C112.935 30.8669 113.047 32.1513 113.047 33.7817V48.2442C113.047 50.0054 113.134 51.3282 113.303 52.1742C113.472 53.024 113.773 53.7739 114.194 54.4083C114.412 54.716 114.664 54.989 114.938 55.2197H101.373C101.648 54.989 101.899 54.7198 102.117 54.4083C102.535 53.7739 102.835 53.024 103.008 52.178C103.166 51.3128 103.253 49.99 103.253 48.2327Z" fill="white"/>
<path d="M144.101 43.8027H144.586C144.293 45.2101 143.816 46.5636 143.165 47.8211C143.135 47.8711 143.109 47.9211 143.079 47.9711C143.038 48.0441 143 48.1172 142.951 48.1979C142.222 49.5169 141.309 50.7167 140.234 51.7664C137.501 54.4351 133.942 55.9156 130.213 55.9387C130.198 55.9387 130.183 55.9387 130.168 55.9387C130.112 55.9425 130.052 55.9387 129.995 55.9348C129.95 55.931 129.905 55.9271 129.86 55.9271C129.597 55.9195 129.319 55.9079 129.007 55.881C128.804 55.8656 128.597 55.8502 128.39 55.8233C127.943 55.7695 127.575 55.7118 127.229 55.6387C127.191 55.6311 127.15 55.6195 127.112 55.6118C127.082 55.6041 127.056 55.5964 127.026 55.5926C121.986 54.4698 117.817 50.6051 116.145 45.5062C115.611 43.8796 115.344 42.203 115.344 40.5264C115.344 32.0281 121.978 25.1141 130.134 25.1141C130.176 25.1141 130.217 25.118 130.258 25.1218C130.296 25.1257 130.337 25.1295 130.379 25.1295C136.34 25.2295 141.624 29.021 143.85 34.7814C144.026 35.2429 144.184 35.7197 144.316 36.1888C144.383 36.5541 144.289 36.9233 144.06 37.2079C143.834 37.4847 143.507 37.6424 143.158 37.6424H125.861V37.7154C125.917 45.0255 129.112 48.7324 135.359 48.7324C137.347 48.7324 139.08 48.3171 140.508 47.5019C141.884 46.7136 142.895 45.6792 144.101 43.8027ZM125.816 35.6505H130.119C131.424 35.6505 132.645 35.039 133.461 33.9739C134.273 32.9164 134.562 31.5667 134.258 30.2708L134.19 30.2862L134.25 30.2362C134.009 29.1825 133.596 28.3981 133.028 27.902C132.457 27.406 131.668 27.156 130.679 27.156C129.135 27.156 127.924 27.8982 127.079 29.3594C126.24 30.8091 125.816 32.901 125.816 35.5736V35.6505Z" fill="white"/>
<path d="M146.898 48.2326L146.901 22.8416L146.886 20.6035C146.886 18.8424 146.8 17.5196 146.631 16.6774C146.458 15.8276 146.161 15.0777 145.74 14.4433C145.71 14.3971 145.672 14.3548 145.638 14.3163C145.616 14.2933 145.597 14.2702 145.575 14.2433C145.364 13.978 145.154 13.7588 144.939 13.5857L145.045 13.5473C145.781 13.2896 146.544 13.0628 147.367 12.8513L147.386 12.8474C148.003 12.6859 148.709 12.4898 149.487 12.2591C150.28 12.0245 150.968 11.8169 151.558 11.6438C152.145 11.4669 152.701 11.3016 153.231 11.1439C153.78 10.9824 154.325 10.8132 154.847 10.644C155.373 10.4748 155.997 10.2595 156.711 10.0018L156.708 48.2249C156.708 49.9899 156.794 51.3089 156.963 52.1549C157.136 53.0047 157.437 53.7546 157.854 54.389C158.072 54.6967 158.32 54.9697 158.594 55.2004H145.003C145.278 54.9697 145.526 54.7005 145.747 54.389C146.165 53.7546 146.465 53.0047 146.638 52.1587C146.807 51.3127 146.898 49.9899 146.898 48.2326Z" fill="white"/>
<path d="M187.851 43.8027H188.336C188.047 45.2101 187.566 46.5636 186.916 47.8211C186.885 47.8711 186.859 47.9211 186.829 47.9711C186.792 48.0441 186.75 48.1172 186.701 48.1979C185.972 49.5169 185.059 50.7167 183.984 51.7664C181.248 54.4351 177.688 55.9156 173.963 55.9387C173.948 55.9387 173.933 55.9387 173.918 55.9387C173.862 55.9425 173.802 55.9387 173.745 55.9348C173.7 55.931 173.655 55.9271 173.61 55.9271C173.351 55.9195 173.073 55.9079 172.757 55.881C172.558 55.8656 172.347 55.8502 172.14 55.8233C171.693 55.7695 171.325 55.7118 170.979 55.6387C170.941 55.6311 170.9 55.6195 170.863 55.6118C170.832 55.6041 170.806 55.5964 170.776 55.5926C165.736 54.4698 161.564 50.6051 159.891 45.5062C159.357 43.8796 159.091 42.203 159.091 40.5264C159.091 32.0281 165.725 25.1141 173.881 25.1141C173.922 25.1141 173.963 25.118 174.005 25.1218C174.042 25.1257 174.084 25.1295 174.125 25.1295C180.082 25.2295 185.371 29.021 187.596 34.7814C187.773 35.2429 187.93 35.7197 188.066 36.1888C188.13 36.5541 188.039 36.9233 187.81 37.2079C187.585 37.4847 187.258 37.6424 186.908 37.6424H169.611V37.7154C169.667 45.0255 172.862 48.7324 179.109 48.7324C181.097 48.7324 182.83 48.3171 184.258 47.5019C185.63 46.7136 186.641 45.6792 187.851 43.8027ZM169.562 35.6505H173.869C175.174 35.6505 176.391 35.039 177.211 33.9739C178.023 32.9164 178.316 31.5667 178.008 30.2708L177.94 30.2862L178 30.2362C177.76 29.1825 177.346 28.3981 176.779 27.902C176.207 27.406 175.418 27.156 174.429 27.156C172.885 27.156 171.674 27.8982 170.829 29.3594C169.991 30.8091 169.562 32.901 169.562 35.5736V35.6505Z" fill="white"/>
<path d="M218.492 55.2004C218.213 55.2235 210.982 55.2196 209.009 55.2004C207.539 54.4275 205.866 54.266 204.284 54.7466C204.092 54.8043 203.934 54.8543 203.769 54.9197C202.318 55.5003 199.905 56.1348 196.628 55.881C194.545 55.7195 193.076 55.1966 191.719 54.1429C189.934 52.7509 189.614 50.609 189.58 49.4554C189.385 42.6337 200.804 37.7578 206.727 37.1656L206.787 37.1579V35.3083C206.701 32.7126 206.235 30.4477 205.539 29.2479L205.509 29.1941C205.22 28.6981 204.844 28.2712 204.393 27.929L204.374 27.9136C203.615 27.3522 202.773 27.0638 201.871 27.0522C201.8 27.0522 201.728 27.0599 201.657 27.0638L201.495 27.0753C201.439 27.0792 201.382 27.083 201.33 27.0868C201.318 27.0868 201.307 27.0907 201.292 27.0907C201.273 27.0907 201.255 27.0945 201.236 27.0984C200.443 27.2022 199.766 27.5175 199.225 28.0405C198.421 28.8096 197.996 29.6671 197.958 30.5861C197.943 30.9745 197.962 31.3475 198.011 31.6859L198.015 31.7051C198.037 31.8743 198.109 32.2281 198.161 32.4973L198.308 33.2125C198.323 33.2856 198.338 33.3548 198.349 33.4202C198.428 33.8009 198.458 34.2123 198.439 34.6353C198.394 35.7428 198.101 36.7234 197.56 37.5463C197.387 37.8116 197.184 38.0616 196.966 38.2884C196.086 39.2036 195.008 39.692 193.764 39.7343C192.794 39.7689 191.858 39.4997 191.129 38.9729C190.603 38.5961 190.182 38.1308 189.84 37.5501C189.663 37.2502 189.516 36.9002 189.392 36.4811C189.212 35.8774 189.133 35.239 189.159 34.5815C189.186 33.8816 189.31 33.1741 189.528 32.4704C189.712 31.8743 189.941 31.336 190.231 30.8207C190.806 29.7901 191.708 28.7865 192.993 27.7559C194.098 26.8677 195.361 26.1909 196.752 25.741C199.86 24.7335 204.81 24.2297 208.253 25.218C211.568 26.1678 214.203 28.998 215.09 31.2975C216.079 33.8662 216.582 37.1579 216.582 41.084V48.4633C216.593 50.0899 216.68 51.3166 216.838 52.1126C217.011 52.9624 217.308 53.7122 217.729 54.3467C217.751 54.3775 217.774 54.4083 217.8 54.4352H217.796L217.86 54.5159C218.048 54.7505 218.243 54.9581 218.446 55.1312C218.454 55.1619 218.473 55.1812 218.492 55.2004ZM206.795 47.5943L206.791 38.8768H206.72C205.622 38.8768 204.799 39.1613 204.273 39.3767C203.743 39.592 203.205 39.9227 202.683 40.3496C201.736 41.0186 201.048 41.8531 200.631 42.8337C200.217 43.8104 200.007 45.0601 200.007 46.5444C200.007 48.3018 200.296 49.6746 200.86 50.6129C201.337 51.4089 202.006 51.878 202.841 52.0049C203.025 52.0318 203.183 52.0472 203.341 52.0472C204.412 52.0472 205.261 51.6434 205.874 50.8513C206.487 50.0668 206.795 48.9671 206.795 47.5943Z" fill="white"/>
<path d="M238.311 48.2327V35.6814C238.311 34.6239 238.266 33.8164 238.168 33.2857C238.07 32.7512 237.867 32.2551 237.559 31.8168C237.285 31.4168 236.909 31.09 236.446 30.8516C235.383 30.3055 234.195 30.4017 232.932 30.9977C231.466 31.6975 230.523 33.228 230.523 34.9008V48.2365C230.523 49.9977 230.609 51.3205 230.778 52.1626C230.951 53.0125 231.252 53.7623 231.673 54.3968C231.887 54.7044 232.139 54.9775 232.413 55.2082H218.804C219.078 54.9775 219.33 54.7083 219.548 54.3968C219.969 53.7623 220.266 53.0125 220.439 52.1665C220.608 51.3205 220.694 49.9977 220.694 48.2404V47.6636L220.69 47.5944L220.698 37.9924L220.683 35.7544C220.683 33.9932 220.596 32.6704 220.427 31.8283C220.258 30.9785 219.957 30.2286 219.536 29.5941C219.506 29.548 219.473 29.5057 219.435 29.4672C219.412 29.4442 219.394 29.4172 219.375 29.3942C219.161 29.1288 218.954 28.9096 218.74 28.7366C219.003 28.6443 222.513 27.6407 223.288 27.4138C224.081 27.1792 224.772 26.9716 225.359 26.7985C225.945 26.6255 226.501 26.4563 227.031 26.2986C227.58 26.1371 228.121 25.9679 228.651 25.7987C229.181 25.6295 229.809 25.4142 230.515 25.1566L230.534 30.5939L230.662 30.3747C231.267 29.3326 235.191 25.1296 241.994 25.1296C244.212 25.1296 245.749 26.4755 246.647 27.6022C247.166 28.2598 247.546 29.0481 247.767 29.9517C247.993 30.8631 248.106 32.1475 248.106 33.7779L248.109 48.2404C248.109 50.0016 248.196 51.3244 248.365 52.1703C248.538 53.0202 248.835 53.77 249.256 54.4045C249.478 54.7121 249.726 54.9852 250 55.2159H236.435C236.71 54.9852 236.961 54.716 237.179 54.4045C237.6 53.77 237.897 53.0202 238.07 52.1742C238.224 51.3167 238.311 49.9939 238.311 48.2327Z" fill="white"/>
<path d="M42.4421 5.07976C42.7841 5.52967 43.2878 5.97188 43.6524 6.541C45.2874 8.96743 48.3281 14.0356 50.7035 19.3153C55.0898 16.6274 51.5718 10.171 51.5718 10.171L51.3162 11.0286C49.7639 7.55618 46.7382 5.77962 46.7382 5.77962L46.8472 6.52946C45.464 4.74905 41.9272 4.03381 41.9272 4.03381C41.9272 4.03381 40.7883 7.53311 41.619 9.64422L41.0364 9.17893C41.0364 9.17893 41.0552 12.7513 43.2389 15.843L42.3857 15.6469C42.3857 15.6469 45.8963 21.5495 50.151 19.6114C50.151 19.6114 46.539 11.3593 43.5058 6.61791C42.8443 5.64118 42.4421 5.07976 42.4421 5.07976Z" fill="white"/>
<path d="M48.4859 2.7336C48.4859 2.94874 48.3168 3.12162 48.1063 3.12162C47.8958 3.12162 47.7267 2.94874 47.7267 2.7336C47.7267 2.51846 47.8958 2.34558 48.1063 2.34558C48.3168 2.34558 48.4859 2.51846 48.4859 2.7336Z" fill="white"/>
<path d="M54.4997 2.7336C54.4997 2.94874 54.3306 3.12162 54.1201 3.12162C53.9096 3.12162 53.7405 2.94874 53.7405 2.7336C53.7405 2.51846 53.9096 2.34558 54.1201 2.34558C54.3306 2.34558 54.4997 2.51846 54.4997 2.7336Z" fill="white"/>
<path d="M51.5341 0.388007C51.5341 0.603145 51.365 0.776027 51.1545 0.776027C50.944 0.776027 50.7749 0.603145 50.7749 0.388007C50.7749 0.17287 50.944 0 51.1545 0C51.365 0 51.5341 0.17287 51.5341 0.388007Z" fill="white"/>
<path d="M58.3786 6.50629C59.0363 5.52956 59.4084 4.87585 59.4084 4.87585C59.0664 5.32576 58.6266 5.79874 58.2583 6.3717C57.142 8.02906 55.3754 10.9208 53.5751 14.2509C53.6277 14.5624 53.6615 14.8738 53.6841 15.1815C55.0033 12.4705 56.7736 9.00963 58.3786 6.50629Z" fill="white"/>
<path d="M53.2367 19.896C52.7743 19.896 52.297 19.8191 51.8084 19.6422C51.7708 19.6307 51.7445 19.596 51.7407 19.5576C51.737 19.5191 51.752 19.4807 51.7821 19.4538C52.9736 18.527 53.5148 17.0889 53.3832 15.1854C53.3832 15.1662 53.387 15.1469 53.3945 15.1316C54.4432 12.9781 55.9053 10.0903 57.326 7.69844C56.2886 9.33273 54.9055 11.6515 53.4734 14.301C53.4509 14.3394 53.4095 14.3625 53.3644 14.3548C53.3193 14.3471 53.2855 14.3125 53.278 14.2663C52.9209 12.1014 51.9211 10.0018 51.3536 8.94434C51.3348 8.90589 51.3385 8.8636 51.3611 8.82899C52.9209 6.63712 54.8453 5.48735 54.8679 5.47582C54.9017 5.45659 54.9468 5.45659 54.9806 5.47967C55.0145 5.50274 55.0333 5.54503 55.0257 5.58349L54.9694 5.97571C56.4803 4.38757 59.5774 3.74539 59.7127 3.71848C59.7653 3.70694 59.818 3.7377 59.833 3.79154C59.8781 3.92997 60.8591 6.99859 60.254 9.12893L60.5584 8.88666C60.5885 8.85975 60.6336 8.8559 60.6712 8.87513C60.7088 8.89436 60.7313 8.93281 60.7313 8.97126C60.7313 9.00587 60.69 12.4359 58.6641 15.47L59.2542 15.3354C59.2955 15.3277 59.3369 15.3431 59.3632 15.3777C59.3895 15.4123 59.3895 15.4584 59.3669 15.4969C59.3256 15.543 56.6908 19.896 53.2367 19.896ZM52.0602 19.4999C55.4918 20.5689 58.3784 16.5928 59.0362 15.6007L58.4348 15.7391C58.3935 15.7468 58.3484 15.7314 58.3258 15.693C58.3033 15.6545 58.3033 15.6084 58.3296 15.5699C60.1562 12.9858 60.4532 10.0287 60.502 9.1943L60.0961 9.51731C60.0585 9.54808 60.0059 9.54808 59.9683 9.51731C59.9307 9.48655 59.9157 9.43655 59.9345 9.39041C60.6674 7.52925 59.8217 4.51062 59.6526 3.94535C59.0888 4.07225 56.1082 4.81057 54.8867 6.37948C54.8566 6.41794 54.804 6.42947 54.7626 6.41024C54.7175 6.39101 54.695 6.34487 54.6987 6.29488L54.7739 5.77576C54.259 6.11415 52.8007 7.17163 51.5641 8.89051C52.1166 9.92877 53.0337 11.8745 53.4246 13.9203C55.2362 10.5902 56.9539 7.80996 57.9725 6.29488C58.2168 5.91419 58.4912 5.57964 58.7543 5.25663C58.8858 5.09897 59.0099 4.94516 59.1226 4.79519C59.1565 4.74904 59.2204 4.74135 59.2655 4.77212C59.3106 4.80288 59.3256 4.86825 59.2955 4.91439C59.2918 4.92208 58.9121 5.58733 58.2619 6.55252C56.6344 9.09816 54.8265 12.6474 53.59 15.1854C53.7102 17.0812 53.1953 18.527 52.0602 19.4999Z" fill="white"/>
</svg>
