<svg width="170" height="30" viewBox="0 0 170 30" fill="none" xmlns="http://www.w3.org/2000/svg">
<g clip-path="url(#clip0_460_160)">
<path d="M0 0.0267189C4.76613 0.0329276 9.53414 -0.0386075 14.298 0.0705848C17.9702 0.154807 20.8473 2.64909 21.4667 6.05605C22.1678 9.91273 20.1667 13.2058 17.0796 14.0894C17.0012 14.1118 16.9374 14.1846 16.8319 14.2582C19.7745 15.1005 21.5308 17.0482 22.0254 19.9661C22.8409 24.7806 20.1854 28.7366 15.1684 29.2963C14.0557 29.4202 12.9259 29.4171 11.8037 29.4229C7.86927 29.4438 3.93456 29.4432 0.000134898 29.4507L0 0.0267189ZM6.33625 23.8332C6.41805 23.8613 6.49971 23.9138 6.58109 23.9138C8.556 23.917 10.5344 23.9871 12.505 23.8937C14.5442 23.7969 15.7568 22.5437 15.8107 20.6969C15.8651 18.8413 14.7451 17.5029 12.7481 17.2632C11.4857 17.1116 10.1963 17.1811 8.91894 17.1632C8.07253 17.1514 7.22572 17.161 6.33625 17.161V23.8332ZM6.29306 11.686C8.13408 11.686 9.8821 11.6891 11.6301 11.6833C11.9665 11.6821 12.3105 11.6849 12.6377 11.619C13.872 11.3712 14.8016 10.7384 15.1248 9.45181C15.6403 7.40064 14.3329 5.62859 12.2106 5.52345C11.2239 5.47472 10.233 5.50995 9.24409 5.50901C8.28498 5.50779 7.3256 5.50874 6.33666 5.50874C6.31695 5.72118 6.29468 5.85076 6.29455 5.98033C6.29225 7.84362 6.29306 9.7069 6.29306 11.686ZM113.646 29.9905C112.901 29.852 112.148 29.7458 111.412 29.5692C105.65 28.1881 102.713 23.2281 103.217 17.7476C103.639 13.1587 105.952 9.80381 110.358 8.25069C116.51 6.08223 123.644 9.00991 124.696 17.195C124.835 18.2764 124.828 19.3766 124.894 20.5651H109.008C109.376 22.5816 110.393 23.9962 112.166 24.7482C115.048 25.9702 117.747 25.3611 120.292 23.7231C120.443 23.6263 120.581 23.5113 120.727 23.4072C120.742 23.397 120.77 23.4059 120.872 23.4059C121.651 24.5519 122.455 25.7355 123.358 27.0655C122.539 27.5766 121.783 28.1307 120.957 28.5456C119.438 29.3089 117.805 29.7135 116.108 29.8548C115.915 29.8709 115.726 29.9438 115.536 29.9903L113.646 29.9905ZM119.411 16.692C119.522 14.0494 117.004 12.0313 113.816 12.157C111.164 12.2616 108.807 14.5072 109.09 16.692H119.411ZM136.457 29.9905C135.54 29.806 134.608 29.6756 133.709 29.4275C129.414 28.2427 126.451 24.6109 126.062 20.1721C125.694 15.9851 126.907 12.4367 130.268 9.79531C135.362 5.79272 145.371 6.70067 147.36 16.171C147.502 16.8495 147.586 17.5461 147.629 18.2385C147.675 18.9737 147.639 19.7143 147.639 20.5647H131.857C131.994 21.7486 132.454 22.7004 133.217 23.4877C134.962 25.2893 137.141 25.6283 139.494 25.2153C140.994 24.952 142.379 24.3823 143.625 23.3146L146.165 27.039C145.504 27.4816 144.905 27.9497 144.247 28.3098C142.611 29.2049 140.84 29.6773 138.986 29.8508C138.77 29.8709 138.559 29.9426 138.346 29.9902C137.716 29.9905 137.086 29.9905 136.457 29.9905ZM131.895 16.6882H142.226C142.358 14.1267 139.9 12.0921 136.811 12.1525C134.07 12.2058 131.697 14.3737 131.895 16.6882ZM31.9883 29.9905C31.3132 29.8523 30.6336 29.7325 29.9636 29.5727C25.8135 28.5837 23.362 25.4771 23.3584 21.2069C23.3551 17.1138 23.3577 13.0205 23.3577 8.9273V8.19373H28.9674V8.97535C28.9674 12.8438 28.9787 16.7121 28.9623 20.5804C28.9546 22.335 29.4914 23.8209 31.1539 24.5844C32.9559 25.412 34.8013 25.3817 36.4683 24.1944C37.6894 23.325 38.0345 21.9942 38.0371 20.5643C38.0445 16.7184 38.0398 12.8725 38.0398 9.02678V8.18104H43.5885L43.5888 8.93918C43.5888 12.9875 43.5907 17.0357 43.5881 21.0841C43.5853 25.9691 40.5447 29.3271 35.672 29.839C35.4315 29.8644 35.1959 29.9385 34.958 29.9899C33.968 29.9905 32.9781 29.9905 31.9883 29.9905ZM84.9566 29.3831V0.0465597H105.361V2.89231C105.361 3.52209 105.319 4.15551 105.373 4.7807C105.427 5.40319 105.177 5.52399 104.604 5.52075C100.578 5.4978 96.5517 5.5086 92.5255 5.5086H91.2521V11.686H92.0119C95.0485 11.686 98.0853 11.7034 101.121 11.6717C101.735 11.6653 101.879 11.8604 101.865 12.4401C101.827 13.9858 101.852 15.533 101.852 17.1561H91.2063V29.3831H84.9566ZM149.061 29.3716V28.5999C149.061 22.0346 149.061 15.4697 149.061 8.90436C149.061 8.04256 149.062 8.03501 149.951 8.04324C153.03 8.07158 156.121 7.94039 159.184 8.17754C163.548 8.51523 166.964 10.4808 168.581 14.7889C170.225 19.1665 168.972 24.1627 165.633 26.8998C163.666 28.5123 161.35 29.3063 158.857 29.3962C155.691 29.5108 152.518 29.4324 149.348 29.4347C149.284 29.4348 149.219 29.4075 149.061 29.3716ZM154.41 24.8691C155.486 24.8691 156.492 24.8694 157.499 24.8691C161.122 24.8679 163.403 22.8264 163.809 19.222C164.1 16.6341 162.7 14.06 160.471 13.1461C158.507 12.3414 156.456 12.7693 154.411 12.6555C154.41 16.7653 154.41 20.761 154.41 24.8691ZM54.8971 12.9856H45.3925V8.17173H62.5753C62.5753 9.07996 62.5296 9.99264 62.5886 10.8988C62.6429 11.7342 62.3887 12.3795 61.8614 13.0353C59.0036 16.5915 56.191 20.1836 53.3636 23.764C53.2119 23.956 53.0676 24.1539 52.8312 24.4659H62.6893V29.3723H45.3404C45.3404 28.0322 45.3207 26.6926 45.3591 25.3545C45.3657 25.1247 45.5965 24.8853 45.7591 24.6784C48.6598 20.9841 51.5663 17.2945 54.4698 13.6023C54.5906 13.4483 54.6937 13.2801 54.8971 12.9856ZM64.2247 12.991C64.2247 11.4719 64.2234 10.0794 64.2268 8.68678C64.227 8.53319 64.2524 8.37959 64.2705 8.18037H81.4C81.4 9.47462 81.4142 10.7481 81.3851 12.0206C81.3806 12.2124 81.1914 12.4144 81.056 12.5865C78.1065 16.3296 75.1522 20.0688 72.2005 23.8101C72.0547 23.9949 71.9246 24.1922 71.6976 24.5083H72.5575C75.3456 24.5083 78.134 24.5201 80.9224 24.4982C81.4404 24.4943 81.6338 24.6216 81.6187 25.1736C81.5808 26.5623 81.6061 27.9529 81.6061 29.3846H64.2415C64.2415 27.9978 64.2304 26.6339 64.2555 25.2708C64.2585 25.0999 64.4379 24.9215 64.56 24.766C67.3923 21.1595 70.2283 17.5561 73.0632 13.9515C73.2797 13.676 73.4916 13.3969 73.8048 12.9909L64.2247 12.991Z" fill="#EE3624"/>
</g>
<defs>
<clipPath id="clip0_460_160">
<rect width="169.3" height="30" fill="white"/>
</clipPath>
</defs>
</svg>
