<svg width="60" height="54" viewBox="0 0 60 54" fill="none" xmlns="http://www.w3.org/2000/svg">
<g clip-path="url(#clip0_460_137)">
<path d="M7.66504 45.3656H10.5217C11.575 45.3656 13.1551 45.67 13.1551 47.4595C13.1551 48.432 12.5006 49.1105 11.5278 49.2857V49.3101C12.64 49.4146 13.4002 50.1638 13.4002 51.1705C13.4002 53.2299 11.5512 53.5355 10.522 53.5355H7.66536L7.66504 45.3656ZM9.30403 48.6661H9.97084C10.6614 48.6661 11.5164 48.514 11.5164 47.6701C11.5164 46.723 10.6845 46.6533 9.936 46.6533H9.30403V48.6661ZM9.30403 52.2482H10.0763C10.8372 52.2482 11.7613 52.0603 11.7613 51.1122C11.7613 50.0466 10.8949 49.8825 10.0763 49.8825H9.30403V52.2482Z" fill="#231F20"/>
<path d="M6.34342 53.4183C5.74629 53.5592 5.10229 53.6749 4.48236 53.6749C1.83793 53.6742 0 52.3523 0 49.5901C0 46.7939 1.70837 45.2252 4.48236 45.2252C5.02056 45.2252 5.73521 45.331 6.33106 45.5651L6.21417 46.9463C5.59456 46.5943 5.03292 46.5123 4.44689 46.5123C2.76228 46.5123 1.70837 47.7993 1.70837 49.4738C1.70837 51.1366 2.7382 52.3872 4.48236 52.3872C5.12605 52.3872 5.88726 52.2484 6.27341 52.0485L6.34342 53.4183Z" fill="#231F20"/>
<path d="M20.5576 53.4183C19.9617 53.5592 19.3165 53.6749 18.6972 53.6749C16.0518 53.6749 14.2139 52.3523 14.2139 49.5901C14.2139 46.7939 15.9232 45.2252 18.6972 45.2252C19.2354 45.2252 19.95 45.331 20.5459 45.5651L20.4284 46.9463C19.8084 46.5943 19.2471 46.5123 18.6623 46.5123C16.9768 46.5123 15.9229 47.7993 15.9229 49.4738C15.9229 51.1366 16.9524 52.3872 18.6972 52.3872C19.3409 52.3872 20.1011 52.2484 20.4882 52.0485L20.5576 53.4183Z" fill="#231F20"/>
<path d="M22.5057 52.2621H23.0639C23.2549 52.2621 23.4608 52.0388 23.4608 51.8636V47.0591C23.4608 46.8833 23.2549 46.6298 23.0639 46.6298H22.4424V45.2303H25.2905C25.5604 45.2303 25.7194 45.4536 25.7669 46.3118C26.5462 45.5807 27.6128 45.1027 28.8685 45.1027C30.0307 45.1027 31.033 45.5645 31.033 47.1861V51.8639C31.033 52.0549 31.2386 52.2624 31.4302 52.2624H31.8753V53.5818H27.7556V52.2624H28.7104V47.9831C28.7104 47.1563 28.3908 46.9175 27.6121 46.9175C26.9444 46.9175 26.3238 47.06 25.7821 47.2352V52.2627H26.7524V53.5824H22.5057V52.2621Z" fill="#231F20"/>
<path d="M34.596 49.8435C34.6914 51.4983 35.4241 52.2627 36.7596 52.2627C37.7935 52.2627 38.1585 51.8959 38.5883 51.3554H39.9086V52.882C39.226 53.2963 38.3175 53.6932 36.5683 53.6932C33.6729 53.6932 32.2256 52.071 32.2256 49.4472C32.2256 46.7584 33.8953 45.1039 36.4086 45.1039C38.9057 45.1039 40.2099 46.3767 40.2099 49.2077C40.2099 49.4941 40.1785 49.7655 40.1785 49.8444L34.596 49.8435ZM34.6286 48.5244H37.8879C37.8087 47.06 37.364 46.4876 36.4092 46.4876C35.4399 46.4876 34.8025 47.091 34.6286 48.5244Z" fill="#231F20"/>
<path d="M46.7338 48.157L45.0799 53.5818H43.0908L41.2136 47.0762C41.1189 46.8209 40.9279 46.6299 40.7052 46.6299H40.4033V45.2303H44.0931V46.6299H43.3617L44.4593 50.798H44.491L46.1138 45.2303H47.8944L49.5185 50.798H49.5499L50.3925 47.6797C50.5987 46.9485 50.5202 46.6299 49.8679 46.6299H49.6291V45.2303H53.1123V46.6299H52.8421C52.5871 46.6299 52.3331 46.7727 52.2377 47.1237L50.345 53.5818H48.3572L46.7661 48.1577L46.7338 48.157Z" fill="#231F20"/>
<path d="M53.3506 53.2321V51.3549H54.6871C54.8778 51.9428 55.6257 52.308 56.3568 52.308C57.2479 52.308 57.7889 51.9282 57.7889 51.3232C57.7889 50.7026 57.4221 50.4482 56.0875 50.2579C54.2892 50.0029 53.4463 49.3826 53.4463 47.7436C53.4463 46.0894 54.7184 45.1356 56.8494 45.1356C58.1535 45.1356 59.0456 45.2791 59.714 45.5009V47.3467H58.4256C58.1542 46.8541 57.6454 46.5348 56.7702 46.5348C55.9117 46.5348 55.434 46.8845 55.434 47.4113C55.434 47.9198 55.7369 48.222 57.1522 48.4291C59.172 48.7301 60.0003 49.2882 60.0003 50.9731C60.0003 52.6125 58.9011 53.6781 56.3726 53.6781C54.8616 53.6775 54.0345 53.4544 53.3506 53.2321Z" fill="#231F20"/>
<path d="M29.2465 28.6514C33.2413 28.6514 36.4788 25.2764 36.4788 21.1096C36.4788 16.9418 33.2413 13.5659 29.2465 13.5659C25.2504 13.5659 22.0098 16.9424 22.0098 21.1096C22.0098 25.2764 25.2504 28.6514 29.2465 28.6514Z" fill="#EC1C2E"/>
<path d="M20.8952 28.6514C16.8979 28.6514 13.6582 25.2765 13.6582 21.1096C13.6582 16.9418 16.8979 13.5621 20.8952 13.5621V28.6514Z" fill="#EC1C2E"/>
<path d="M37.5977 36.9768L37.6005 29.8164L44.4676 29.8205C44.4676 33.778 41.3923 36.9768 37.5977 36.9768Z" fill="#EC1C2E"/>
<path d="M20.8948 5.23535V12.4024L14.0186 12.403C14.0186 8.44523 17.0989 5.23535 20.8948 5.23535Z" fill="#EC1C2E"/>
<path d="M20.8948 36.9802V29.817L14.0205 29.8211C14.0205 33.778 17.0967 36.9802 20.8948 36.9802Z" fill="#EC1C2E"/>
<path d="M45.9566 27.5924L45.9521 14.6265C48.0704 15.9423 49.4874 18.3533 49.4874 21.1102C49.4896 23.8658 48.0704 26.2746 45.9566 27.5924Z" fill="#EC1C2E"/>
<path d="M23.0312 3.68409L35.4634 3.68441C34.2017 1.4768 31.8924 0 29.2499 0C26.6042 0 24.2926 1.4768 23.0312 3.68409Z" fill="#EC1C2E"/>
<path d="M35.3709 38.5351L22.9375 38.5338C24.2002 40.7398 26.5095 42.2198 29.1539 42.2198C31.798 42.2198 34.107 40.7421 35.3709 38.5351Z" fill="#EC1C2E"/>
<path d="M36.4788 29.8212C36.4788 33.989 33.2413 37.3645 29.2465 37.3645C25.2504 37.3645 22.0098 33.9883 22.0098 29.8212H36.4788Z" fill="#EC1C2E"/>
<path d="M37.6016 28.6514C41.5945 28.6514 44.837 25.2765 44.837 21.1096C44.837 16.9418 41.5955 13.5621 37.6016 13.5621V28.6514Z" fill="#EC1C2E"/>
<path d="M36.4788 12.4116C36.4788 8.24727 33.2413 4.86792 29.2465 4.86792C25.2504 4.86792 22.0098 8.24727 22.0098 12.4116H36.4788Z" fill="#EC1C2E"/>
<path d="M12.5392 27.5924L12.5427 14.6265C10.4241 15.9423 9.00781 18.3533 9.00781 21.1102C9.00781 23.8658 10.4241 26.2746 12.5392 27.5924Z" fill="#EC1C2E"/>
<path d="M44.4676 12.4072L37.6015 12.4024L37.5977 5.24109C41.3923 5.24077 44.4676 8.44812 44.4676 12.4072Z" fill="#EC1C2E"/>
</g>
<defs>
<clipPath id="clip0_460_137">
<rect width="60" height="53.693" fill="white"/>
</clipPath>
</defs>
</svg>
