<svg width="134" height="35" viewBox="0 0 134 35" fill="none" xmlns="http://www.w3.org/2000/svg">
<g clip-path="url(#clip0_460_117)">
<path d="M12.8652 3.26119H15.7926C17.5753 2.99856 19.396 3.22947 21.0567 3.92883C23.1402 5.18235 24.6515 7.20039 25.268 9.55246C25.7046 10.785 25.7046 10.785 26.7574 10.3485H27.5791V0.590609H0.0259048V2.31108H1.15577C1.64675 2.30768 2.13227 2.41432 2.57663 2.62317C3.021 2.83203 3.41293 3.13778 3.72363 3.51797C4.77646 5.21277 4.95621 7.11299 4.95621 16.9993C4.95621 27.5018 4.7251 30.0697 3.72363 31.3793C3.4764 31.716 3.1563 31.9925 2.78725 32.1881C2.41819 32.3838 2.00971 32.4935 1.5923 32.5092C0.0259049 32.7916 0.0259048 32.766 0.0259048 33.4593C-0.0607183 33.6911 -0.0607183 33.9464 0.0259048 34.1783H17.4104C17.5254 33.9515 17.5854 33.7008 17.5854 33.4464C17.5854 33.1921 17.5254 32.9414 17.4104 32.7146C16.9893 32.5975 16.5601 32.5116 16.1264 32.4578C15.6572 32.402 15.1934 32.3075 14.7398 32.1753C14.0901 31.7011 13.5755 31.0655 13.2468 30.3314C12.918 29.5974 12.7865 28.7902 12.8652 27.9897C12.6084 26.2949 12.4801 23.1878 12.4801 20.62V18.5913H13.5072C14.7869 18.5522 16.0659 18.6905 17.3076 19.0022C17.9025 19.3698 18.4089 19.8642 18.7907 20.4502C19.1724 21.0361 19.4201 21.6991 19.516 22.3918L19.7471 23.1878H21.3135V11.8122H19.8755L19.6444 12.9164C19.5472 13.6247 19.2851 14.3004 18.8793 14.8891C18.4734 15.4778 17.9351 15.9631 17.3076 16.3059C16.7 16.4868 16.0598 16.5306 15.4331 16.4343H12.4801V13.661C12.4801 10.785 12.6341 4.72487 12.7368 3.77476L12.8652 3.26119ZM133.041 23.6244C131.828 21.6708 129.934 20.2349 127.726 19.5928C126.033 19.0636 124.468 18.1892 123.129 17.0249C122.828 16.7337 122.603 16.3731 122.473 15.9748C122.343 15.5764 122.313 15.1523 122.385 14.7395C122.387 13.9299 122.71 13.1541 123.283 12.5825C123.672 12.1754 124.164 11.8815 124.707 11.7323C125.25 11.583 125.823 11.584 126.365 11.7351C127.487 12.0551 128.503 12.6727 129.303 13.5226C130.103 14.3724 130.658 15.4229 130.91 16.5627C131.321 17.7183 131.372 17.7183 132.117 17.4101L132.579 17.2304V10.8364L132.245 10.6823C129.717 9.79443 127.036 9.42756 124.362 9.60382C122.059 9.66215 119.862 10.5779 118.199 12.1717C117.445 12.8776 116.854 13.7397 116.468 14.6978C116.083 15.6559 115.911 16.6868 115.965 17.7183C115.979 19.2953 116.605 20.8051 117.711 21.9296C118.933 23.1313 120.432 24.0133 122.077 24.4974C126.057 26.0638 127.212 27.0653 127.212 28.8885C127.229 29.6573 126.984 30.4091 126.518 31.0204C126.051 31.6317 125.391 32.0661 124.644 32.2524C123.748 32.4494 122.819 32.4494 121.922 32.2524C120.749 31.7968 119.7 31.0674 118.865 30.125C118.03 29.1826 117.432 28.0544 117.121 26.8342L116.787 26.0125H116.325C116.104 26.0289 115.887 26.0809 115.683 26.1665H115.426V33.4593H115.862C117.597 34.0364 119.387 34.4322 121.203 34.6405H123.771C124.885 34.7222 126.004 34.6181 127.084 34.3324C128.454 34.0795 129.735 33.4724 130.798 32.5714C131.861 31.6705 132.67 30.507 133.144 29.1966C133.45 28.4647 133.608 27.679 133.606 26.8855C133.707 25.7677 133.513 24.643 133.041 23.6244ZM108.852 10.3485C107.313 9.70245 105.655 9.38906 103.987 9.42888C102.318 9.46871 100.677 9.86086 99.1712 10.5796C97.7554 11.2721 96.5006 12.2538 95.4877 13.4613C94.4749 14.6688 93.7264 16.0752 93.2908 17.5899C92.7353 19.2422 92.5 20.9852 92.5974 22.7256C92.579 23.6725 92.6565 24.6189 92.8285 25.5503C93.2432 27.8403 94.3488 29.9486 95.9967 31.5919C97.6446 33.2352 99.756 34.3349 102.047 34.7432C103.539 34.9312 105.049 34.9312 106.541 34.7432C108.089 34.4703 109.571 33.9038 110.906 33.0741C112.011 32.4549 112.946 31.5729 113.628 30.5062C113.584 30.3389 113.507 30.1821 113.401 30.0453C113.295 29.9085 113.163 29.7945 113.012 29.7102C112.719 29.8163 112.442 29.9633 112.19 30.1467C110.913 30.9885 109.405 31.4104 107.876 31.3536C106.862 31.4222 105.845 31.2642 104.899 30.8912C103.953 30.5181 103.101 29.9393 102.407 29.1966C101.869 28.6975 101.426 28.1061 101.097 27.4505C100.299 25.8541 99.8692 24.0992 99.8388 22.3147V21.3133H114.065V20.7997C114.096 20.2866 114.096 19.7721 114.065 19.259C114.06 17.4458 113.575 15.6663 112.659 14.1013C111.744 12.5363 110.43 11.2415 108.852 10.3485ZM101.688 19.2333H99.8902V17.7183C100.481 13.8408 101.944 11.5297 103.742 11.5297C105.539 11.5297 106.31 13.8151 106.644 18.0007V19.182H105.103L101.688 19.2333ZM64.7618 9.5011C63.8745 9.46669 62.9924 9.65192 62.1939 10.0404C60.4584 10.8832 59.0566 12.285 58.2137 14.0205L57.8799 14.6368V9.5011H57.7515C57.4434 9.5011 47.9423 11.4013 47.6341 11.5297C47.326 11.6581 47.4287 11.6838 47.4287 12.146C47.4287 12.6082 47.4287 12.6853 47.6341 12.7109L48.6356 12.9164C48.9161 12.9232 49.1913 12.9939 49.4405 13.1229C49.6896 13.2519 49.9061 13.4359 50.0736 13.661C50.7156 14.5084 50.844 15.9978 50.844 22.3404C50.9708 25.1958 50.8505 28.0568 50.4845 30.8914C50.3983 31.3188 50.1815 31.709 49.8642 32.0079C49.5468 32.3069 49.1444 32.5 48.7126 32.5605L47.8396 32.7403H47.5057V33.4593C47.4126 33.6988 47.4126 33.9645 47.5057 34.204H61.8601V33.4593C61.9099 33.2136 61.9099 32.9603 61.8601 32.7146C60.9958 32.6809 60.1364 32.5692 59.2922 32.3808C58.8325 32.1403 58.4565 31.7663 58.2135 31.3079C57.9706 30.8495 57.8722 30.3283 57.9313 29.8129C57.7258 28.3235 57.6231 23.9582 57.6745 20.62C57.7258 17.2817 57.6745 17.0763 57.9569 16.8452C58.8162 16.1864 59.8795 15.8501 60.9613 15.8951C61.9811 15.9173 62.9823 16.172 63.8887 16.6398C64.2029 16.8143 64.54 16.9439 64.8902 17.0249C64.8902 17.0249 67.458 10.8107 67.458 10.5282C67.1294 10.1464 66.7108 9.8525 66.24 9.67315C65.7692 9.49381 65.2612 9.43467 64.7618 9.5011ZM47.4544 20.2861C47.3647 18.4511 46.8379 16.6641 45.9178 15.074C44.9977 13.4839 43.7108 12.1366 42.1646 11.1445C40.327 10.1532 38.2826 9.6066 36.1955 9.54863C34.1083 9.49065 32.0367 9.92292 30.147 10.8107C27.4751 12.2196 25.4577 14.6147 24.5233 17.4872C23.5582 20.7032 23.5582 24.1317 24.5233 27.3478C25.0293 29.1054 25.9749 30.705 27.271 31.9956C28.8851 33.5706 30.9664 34.5797 33.2027 34.8716C34.6382 34.9916 36.0812 34.9916 37.5167 34.8716C38.045 34.7912 38.568 34.6798 39.0831 34.5378C41.1733 33.9531 43.0537 32.7852 44.5044 31.1709C45.955 29.5565 46.9159 27.5624 47.2746 25.4219C47.531 23.7225 47.5913 21.9993 47.4544 20.2861ZM36.7721 33.1255C34.2042 33.8958 32.2783 31.405 31.6363 26.1665C31.4006 23.424 31.4006 20.6663 31.6363 17.9237C32.1499 13.7124 33.4595 11.5811 35.4881 11.5811C35.8974 11.5557 36.3068 11.6287 36.6821 11.794C37.0573 11.9593 37.3876 12.2121 37.6451 12.5312C39.3656 14.2517 40.213 17.6669 40.213 22.8026C40.4267 25.7092 39.9698 28.6259 38.8777 31.328C38.3955 32.116 37.6494 32.7074 36.7721 32.9971V33.1255ZM82.9936 10.0147C82.2691 9.92143 81.5355 9.92143 80.8109 10.0147C79.4201 10.0135 78.0452 10.3112 76.7794 10.8877L75.9834 11.2216V5.6493C76.1225 3.76877 76.1225 1.88053 75.9834 0C75.6752 0 65.866 1.87454 65.7119 1.95158C65.6362 2.14116 65.6362 2.3526 65.7119 2.54219C65.7119 3.08144 65.7119 3.05576 66.8674 3.31255C67.1919 3.3853 67.5035 3.5065 67.7919 3.67205C68.2931 4.1434 68.6267 4.76554 68.742 5.44387C69.0344 7.39808 69.129 9.37678 69.0244 11.35V33.8958L69.7178 34.0499C70.7449 34.281 73.6466 34.7689 74.5967 34.8716C76.4939 35.0225 78.4001 35.0225 80.2974 34.8716C82.4032 34.6565 84.4104 33.8709 86.1028 32.5994C87.7951 31.3278 89.1084 29.6186 89.9012 27.6559C90.3738 26.3962 90.7012 25.0867 90.877 23.7528C91.0298 21.9459 90.9695 20.1273 90.6972 18.3346C90.4217 16.325 89.5348 14.4488 88.1567 12.9605C86.7786 11.4721 84.9761 10.4437 82.9936 10.0147ZM76.2658 32.6889C76.2658 32.3551 76.009 21.1079 76.0604 16.6141V13.0961L76.8051 12.9164C77.3075 12.8444 77.8177 12.8444 78.3201 12.9164C78.8758 12.8599 79.4347 12.9861 79.9122 13.2759C80.8712 13.9377 81.6675 14.8084 82.2413 15.8226C82.815 16.8367 83.1513 17.9677 83.2247 19.1306C83.4118 21.0005 83.4118 22.8843 83.2247 24.7542C83.071 27.4719 82.0239 30.0627 80.246 32.124C79.7414 32.6033 79.1077 32.9246 78.4228 33.0484C77.9046 33.1386 77.3747 33.1386 76.8564 33.0484C76.3685 33.0484 76.3685 32.8943 76.3685 32.6889H76.2658Z" fill="#10002B"/>
</g>
<defs>
<clipPath id="clip0_460_117">
<rect width="133.632" height="35" fill="white"/>
</clipPath>
</defs>
</svg>
