<svg width="116" height="35" viewBox="0 0 116 35" fill="none" xmlns="http://www.w3.org/2000/svg">
<path d="M114.153 11.4978L113.993 12.2138L112.523 12.6098C112.215 12.728 111.95 12.9348 111.761 13.204L104.989 21.7732L102.468 30.1519C102.331 30.5861 102.506 30.8451 102.788 30.9136L104.555 31.3478L104.319 32.0638H95.5137L95.7498 31.3478L97.4027 30.9517C97.6152 30.909 97.8096 30.8022 97.9594 30.6455C98.1092 30.4889 98.2074 30.29 98.2406 30.0758L100.762 21.5904L98.5529 13.303C98.4539 12.9069 98.332 12.587 97.9207 12.4651L96.8847 12.1833L97.0447 11.4673H104.555L104.395 12.1833L103.123 12.5413C102.666 12.6632 102.567 12.8993 102.689 13.303L104.494 20.3335L109.826 13.2192C109.916 13.1051 109.972 12.9677 109.986 12.8231C109.978 12.7411 109.941 12.6645 109.883 12.6062C109.825 12.5479 109.748 12.5115 109.666 12.5032L108.234 12.1452L108.432 11.4292L114.153 11.4978Z" fill="black"/>
<path d="M96.6416 16.1898H95.6209L94.7449 13.5086C94.7292 13.4094 94.694 13.3144 94.6414 13.2289C94.5888 13.1434 94.5198 13.0691 94.4384 13.0103C94.357 12.9516 94.2648 12.9095 94.1671 12.8865C94.0693 12.8635 93.968 12.8601 93.869 12.8764H91.66L86.4957 30.1823C86.3586 30.6165 86.4957 30.8755 86.8918 30.944L88.3238 31.3401L88.0876 32.0561H79.4804L79.7165 31.3401L81.2399 30.9821C81.9178 30.8222 82.0549 30.6241 82.2301 30.03L87.3564 12.8383H84.7894C84.5944 12.8525 84.4058 12.9141 84.2399 13.0176C84.074 13.1211 83.9358 13.2635 83.8373 13.4324L82.0549 15.9765H81.0647L82.6719 10.9797H83.3041C83.3571 11.1374 83.4603 11.2734 83.5978 11.3669C83.7353 11.4604 83.8997 11.5064 84.0658 11.4977H94.8135C95.0185 11.5287 95.2281 11.4956 95.4135 11.4029C95.599 11.3101 95.7512 11.1623 95.8494 10.9797H96.5273L96.6416 16.1898ZM80.6915 15.9308H79.7012L78.7491 13.3639C78.6961 13.2062 78.593 13.0702 78.4554 12.9767C78.3179 12.8832 78.1535 12.8372 77.9874 12.8459H73.8742L71.551 20.6762H75.4281C75.8242 20.6762 76.0603 20.4782 76.3421 20.0821L77.4161 18.513H78.4064L76.5783 24.7514H75.588L75.6261 22.5424C75.6261 22.1463 75.39 22.0245 74.9939 22.0245H71.1854L68.5651 30.6774H74.2094C74.4835 30.7195 74.7639 30.6824 75.0176 30.5703C75.2713 30.4583 75.4877 30.2761 75.6414 30.0452L77.8884 27.2422H78.9624L76.6773 32.6503H75.9613C75.7632 32.2542 75.4814 32.0942 74.7654 32.0942H61.8164L62.0525 31.3782L63.5759 30.9821C63.774 30.9253 63.9513 30.8123 64.0864 30.6569C64.2216 30.5014 64.3089 30.3101 64.3376 30.1062L69.304 13.3486C69.3618 13.2273 69.3695 13.0881 69.3252 12.9611C69.281 12.8342 69.1885 12.7299 69.0678 12.6707L67.6739 12.2366L67.872 11.5205H79.0386C79.219 11.5278 79.3976 11.4828 79.553 11.3909C79.7084 11.299 79.8339 11.1641 79.9145 11.0026H80.5467L80.6915 15.9308Z" fill="black"/>
<path d="M113.947 6.07438C103.874 8.22395 93.6036 9.30899 83.3039 9.31163C58.9293 9.31163 41.791 5.9906 34.5548 4.26152L4.06367 33.1759L1.58051 33.4958L10.5458 6.21149C7.8375 7.29821 4.99691 8.02053 2.09847 8.3595C1.40532 8.43567 1.38247 8.03959 1.70239 7.86439C2.64831 7.39806 3.49225 6.74856 4.18525 5.95358C4.87824 5.15859 5.40652 4.23393 5.73943 3.23322C10.1345 4.30723 13.4479 3.46935 17.4621 1.99926L9.37276 24.9494L30.9747 1.50415C44.0205 4.21243 57.3053 5.60318 70.6291 5.65545C81.1407 5.65545 90.3573 4.00254 95.1103 2.0602C101.791 6.0363 109.415 5.69353 113.787 5.41932C114.42 5.38123 114.503 5.97536 113.947 6.09724" fill="black"/>
<path d="M66.9572 11.4977L66.7592 12.2137L65.0682 12.6936C64.9153 12.739 64.7784 12.8268 64.6733 12.9467C64.5681 13.0667 64.4991 13.2139 64.4741 13.3715L59.5078 29.9995C59.3707 30.4946 59.2488 30.8145 59.8658 30.9897L61.0616 31.3477L60.8255 32.0637H52.8657L53.1018 31.3477L54.252 30.9897C54.9071 30.7917 55.1051 30.5556 55.2422 30.0376L60.1704 13.3258C60.2695 12.9678 60.1704 12.7317 59.8886 12.6479L58.5785 12.2137L58.7765 11.4977H66.9572ZM55.0975 16.5859C55.0975 19.7089 52.6143 22.4282 48.5773 22.2682C47.7915 22.241 47.0116 22.1209 46.2541 21.9102C46.2541 25.7187 47.4271 29.6187 49.6894 29.6187C51.0833 29.6187 51.4946 28.4456 51.6927 27.4554C51.7307 27.2955 51.8526 27.1736 52.0507 27.3792C52.3722 27.6909 52.626 28.0655 52.7964 28.4796C52.9668 28.8938 53.05 29.3385 53.0409 29.7862C53.0409 32.1323 51.5175 33.1834 49.3238 33.1834C43.6643 33.1834 43.4053 25.0332 44.3194 20.0288C44.3803 19.747 44.4793 19.7089 44.6774 19.8307C45.4999 20.3131 46.4439 20.5484 47.3966 20.5087C49.2247 20.5087 50.9538 19.0614 50.9538 16.4335C50.9538 13.8057 48.7753 12.168 45.5533 12.168L40.2214 30.0681C40.1726 30.2077 40.1469 30.3543 40.1452 30.5022C40.14 30.5543 40.1451 30.6069 40.1603 30.657C40.1755 30.707 40.2004 30.7536 40.2337 30.794C40.267 30.8343 40.3079 30.8677 40.3542 30.8922C40.4005 30.9166 40.4511 30.9316 40.5032 30.9364L42.0266 31.3325L41.7905 32.0485H33.8535L34.0896 31.3325L35.2855 30.9745C35.6664 30.8526 35.8187 30.6394 36.0015 30.0605L41.2801 12.168C38.995 12.6479 37.8829 13.501 37.8829 14.8111C37.8475 15.3197 37.9873 15.825 38.279 16.2431C38.3578 16.3602 38.4002 16.498 38.4009 16.6392C38.4009 16.9363 38.1419 17.1952 37.4107 17.1952C37.0984 17.2168 36.7852 17.1699 36.493 17.0578C36.2007 16.9457 35.9365 16.7711 35.7189 16.5461C35.5012 16.3212 35.3353 16.0514 35.2328 15.7557C35.1304 15.4599 35.0937 15.1453 35.1256 14.834C35.1256 13.8437 35.7425 10.4846 44.4869 10.4846C51.8983 10.4846 55.0975 12.8916 55.0975 16.5783" fill="black"/>
<path d="M29.421 15.1387L21.2174 25.2465H28.4917L29.421 15.1387ZM33.6561 31.3706L33.4199 32.0866H25.9019L26.138 31.3706L27.4482 31.0126C27.62 30.9739 27.7731 30.8769 27.8814 30.738C27.9898 30.5991 28.0466 30.427 28.0423 30.2509L28.3622 26.7699H19.9225L17.1651 30.0986C17.0183 30.2367 16.9196 30.4182 16.8833 30.6165C16.8833 30.7917 16.9823 30.9136 17.2032 30.9745L18.4753 31.3706L18.2391 32.0866H11.917L12.1988 31.3706L13.509 31.0507C14.0122 30.8949 14.456 30.5893 14.781 30.1747L31.8432 10.1114L33.6104 9.7915L31.9651 30.2585C31.927 30.6927 31.9651 30.9745 32.483 31.0964L33.6561 31.3706Z" fill="black"/>
</svg>
