<svg width="91" height="28" viewBox="0 0 91 28" fill="none" xmlns="http://www.w3.org/2000/svg">
<path fill-rule="evenodd" clip-rule="evenodd" d="M12.6867 13.6348C13.1365 13.377 13.3532 12.8549 13.5749 12.4236C13.8043 11.9765 14.0856 11.488 14.2208 10.9702C14.4321 10.1641 14.3164 9.41552 14.2612 8.70934C13.9456 4.6627 18.0609 3.8095 21.4878 3.21872C23.5475 2.86345 25.9426 2.90281 28.1089 3.13798C28.3972 3.16927 28.7649 3.29308 28.997 3.2591C29.3015 3.21435 29.7988 2.75175 30.0871 2.57277C30.7428 2.16636 31.5032 1.7586 32.3883 1.60384C33.4844 1.4124 34.8329 1.57591 36.0622 1.8057C39.5611 2.45939 43.276 3.33345 46.0344 4.55101C46.0876 4.7966 45.6274 5.21748 45.4692 5.51994C48.116 4.08605 50.6056 2.59464 53.6645 1.68458C56.468 0.850558 59.7183 0.720694 62.5463 1.60384C62.8932 1.71217 63.3413 1.93859 63.6764 1.96719C64.1844 2.01025 64.8015 1.81344 65.3721 1.76532C74.4188 1.00263 82.8428 3.59587 90.5643 5.07584C88.8929 7.76463 86.5601 9.79165 83.4992 11.0913C83.8144 11.4018 84.1734 11.5162 84.4277 11.818C85.1228 12.6429 85.0673 14.0536 84.5892 15.0074C84.1196 15.9447 83.0958 16.4817 82.5706 17.0664C84.2242 16.9698 85.8623 17.2713 86.083 18.8024C86.3087 20.3682 85.4387 21.6261 84.67 22.4359C82.2389 24.9968 78.0005 25.8366 73.8906 26.6753C71.0349 27.2577 68.4383 27.5312 65.0491 27.5635C62.4168 27.5884 58.3204 27.3475 57.1768 25.666C56.9521 25.3356 56.8296 24.829 56.8135 24.4141C53.6301 25.778 50.0575 27.2166 45.7111 27.3213C41.2402 27.4282 37.1593 26.3486 35.6181 23.3241C34.886 24.6527 34.2522 25.9893 32.9939 26.7153C31.5543 27.5467 28.9863 27.6611 27.2207 27.3213C25.263 26.9441 23.7584 26.1202 23.5868 24.0912C23.4176 22.0853 24.2274 20.1286 24.7576 18.4794C25.336 16.6812 25.9786 15.0464 26.6148 13.4733C25.7542 13.9789 25.1587 14.9442 24.5157 15.7745C22.6394 18.1968 20.4025 20.5919 17.8543 22.4359C16.2102 23.6252 14.3678 24.8205 12.2423 25.706C10.3609 26.4899 7.27176 27.5679 4.93488 26.6346C4.1234 26.3106 3.32639 25.4372 3.72372 24.3334C3.93937 23.7339 4.68188 23.3843 4.73302 22.7185C4.77171 22.2108 4.26908 21.54 3.96595 21.0229C3.09021 19.5298 2.09975 17.8052 1.46288 16.2589C0.579733 14.1155 -0.500223 11.0876 0.292418 8.50748C1.01912 6.141 3.06801 4.72292 5.09671 3.58207C6.69814 2.68144 8.27501 2.01799 10.1432 1.3616C11.1926 0.99287 13.0218 0.375849 13.8171 1.44235C14.9384 2.94655 13.9678 5.8668 13.5745 7.4578C13.0571 9.55144 12.6726 11.5108 12.6867 13.6348ZM36.3445 3.13832C35.0539 2.88498 33.6113 2.64746 32.388 2.93646C31.809 3.07338 31.2441 3.37147 30.8135 3.66315C30.47 3.89597 29.8825 4.52443 29.4408 4.59172C28.9224 4.67078 28.1889 4.44738 27.5433 4.38985C24.1426 4.08673 21.0084 4.31012 18.3385 5.27804C17.4075 5.61549 16.2344 6.08145 15.795 6.97367C15.2786 8.02268 15.9198 9.47608 15.7546 10.809C15.6826 11.389 15.3842 12.0115 15.1087 12.545C14.524 13.6771 13.9645 14.4069 13.2108 15.4115C12.9414 15.7708 12.3573 16.557 11.8382 16.4611C11.4789 16.3945 11.3137 15.761 11.273 15.0481C11.0937 11.9109 11.8678 9.28263 12.4034 6.6507C12.6261 5.55526 12.9373 4.22265 12.8472 3.17869C12.7816 2.4133 12.437 2.10176 11.7978 2.12901C10.7387 2.17409 9.42696 2.91627 8.40656 3.34018C7.29666 3.80109 6.36574 4.29397 5.45905 4.87432C3.65105 6.03233 1.93557 7.51702 1.62403 10.042C1.29264 12.7244 2.37259 15.1023 3.31966 16.986C3.79 17.9216 4.23476 18.866 4.97492 19.812C5.5445 20.5408 6.70285 21.6907 6.54944 22.7592C6.43707 23.5424 4.86087 24.3361 5.13641 25.1412C5.27636 25.5503 6.20493 25.6589 7.03424 25.6663C9.45825 25.6875 11.3093 24.7438 12.7671 24.0111C15.0626 22.8564 16.8369 21.5575 18.6207 20.0543C20.426 18.5336 22.0789 16.9372 23.5465 15.1689C25.0244 13.3885 26.2615 11.4082 27.7855 9.5575C28.8756 12.509 27.762 14.8964 26.857 17.0264C26.3809 18.147 25.9957 19.1785 25.6051 20.4176C25.2549 21.5292 24.7523 23.1868 25.0803 24.4145C25.5062 26.0075 27.8892 26.2992 29.7634 26.1505C31.1664 26.0394 32.2258 25.6512 32.9529 24.9393C34.4782 23.4462 35.2827 21.3401 36.223 19.3676C36.0248 22.1082 37.1415 23.7207 38.9279 24.6967C40.7053 25.668 43.0261 26.1098 45.6297 26.1098C50.8549 26.1098 54.7986 24.1335 58.024 22.3551C57.8484 23.2373 57.8003 24.2079 58.1451 24.8582C58.8398 26.1686 60.6926 26.2659 62.7072 26.4327C64.105 26.5488 65.184 26.5774 66.1792 26.5539C68.7448 26.4936 71.1066 26.1834 73.5269 25.7057C76.7843 25.0631 80.2731 24.0928 82.7318 22.4759C83.5614 21.9306 84.4732 21.2177 84.6696 20.2555C85.2261 17.5276 81.9842 18.3354 80.2287 18.721C78.8863 19.016 77.5453 19.4235 76.3937 19.6899C73.8502 20.278 70.5101 21.0424 68.2385 20.0129C67.8916 19.8558 67.389 19.6001 67.3903 19.0843C67.3917 18.7375 67.7557 18.3435 67.9959 18.1558C68.8306 17.5038 70.2137 17.3349 71.6698 17.2272C75.2831 16.9601 80.6213 17.5458 82.7721 15.289C83.2987 14.7366 83.8299 13.3801 83.2162 12.3822C82.7203 11.5754 81.4503 11.4005 80.3094 11.4536C77.1779 11.6 74.5365 12.9003 71.7909 12.8263C71.2873 12.8125 70.3281 12.8206 70.176 12.4629C69.9873 12.0192 70.4566 11.3594 70.7012 11.0499C71.0127 10.6553 71.4165 10.2132 71.7909 10.081C72.412 9.86197 73.3809 9.98981 74.2536 10.081C76.8869 10.3548 79.5467 10.5924 81.7225 10.2021C84.4927 9.70519 86.3663 8.22992 87.8991 6.56861C88.1093 6.34118 88.394 6.11543 88.4643 5.80154C81.9045 4.61863 74.4245 2.70398 67.2288 2.81399C65.9605 2.83317 64.8193 3.0098 63.8779 3.50032C63.0961 3.90774 61.9855 4.84236 62.1419 5.92265C62.2348 6.56457 63.0742 7.03592 63.6761 7.25493C64.4438 7.53485 65.2412 7.6415 65.8969 7.94126C64.2016 8.24944 62.1527 8.7376 60.4467 9.03131C60.7794 8.18619 61.2201 7.36428 61.6174 6.32637C61.8849 5.62693 62.512 4.11297 62.3034 3.21772C62.1019 2.35308 60.448 2.18351 59.3159 2.16804C58.2514 2.15357 56.8505 2.32616 55.8843 2.53139C49.3934 3.91077 44.4556 7.46251 40.2198 10.9692C41.0259 9.08514 42.1893 7.30136 43.2478 5.72079C43.4015 5.49101 43.6481 5.21042 43.6111 5.03446C41.1999 4.17857 38.8072 3.62177 36.3445 3.13832ZM72.5586 11.3742C72.7696 11.2807 73.3116 11.4419 73.4872 11.2128C73.1723 11.2262 72.629 11.026 72.5586 11.3742ZM69.6515 18.8431C70.8021 18.9329 72.3396 18.9999 73.6083 18.8431C74.5577 18.7257 75.53 18.6123 76.1921 18.1968C74.0888 18.3408 71.3794 18.221 69.6515 18.8431Z" fill="black"/>
</svg>
